<?xml version="1.0" encoding="UTF-8"?>
<svg version="1.1" xmlns="http://www.w3.org/2000/svg" width="500" height="500">
<path d="M0 0 C2.08355835 3.3182596 2.48832306 4.8435493 1.6875 8.6875 C-0.99023837 12.03467297 -3.0210694 14.16202822 -7.3125 14.6875 C-9.5611451 14.29129828 -11.79512767 13.80910704 -14.015625 13.27734375 C-22.3930906 11.43820434 -30.51232862 11.17636722 -39.0625 11.25 C-40.17535873 11.25406357 -40.17535873 11.25406357 -41.31069946 11.25820923 C-53.04282996 11.32301717 -64.04856303 12.2672876 -75.3125 15.6875 C-75.96089844 15.86941895 -76.60929687 16.05133789 -77.27734375 16.23876953 C-91.46638237 20.23211315 -104.24633797 26.66875705 -115.97290039 35.5378418 C-120.13801879 38.6875 -120.13801879 38.6875 -122.3125 38.6875 C-122.3125 39.3475 -122.3125 40.0075 -122.3125 40.6875 C-127.78869048 45.6875 -127.78869048 45.6875 -130.3125 45.6875 C-130.3125 46.3475 -130.3125 47.0075 -130.3125 47.6875 C-130.9725 47.6875 -131.6325 47.6875 -132.3125 47.6875 C-132.3125 48.3475 -132.3125 49.0075 -132.3125 49.6875 C-132.9725 49.6875 -133.6325 49.6875 -134.3125 49.6875 C-134.3125 50.3475 -134.3125 51.0075 -134.3125 51.6875 C-134.9725 51.6875 -135.6325 51.6875 -136.3125 51.6875 C-136.580625 52.265 -136.84875 52.8425 -137.125 53.4375 C-138.34179189 55.74300043 -139.61583879 57.70806192 -141.3125 59.6875 C-141.9725 59.6875 -142.6325 59.6875 -143.3125 59.6875 C-143.51875 60.3475 -143.725 61.0075 -143.9375 61.6875 C-145.12382451 64.27584439 -146.20089737 65.93065157 -147.9375 68.125 C-156.29904813 79.05619463 -161.18673851 90.69559591 -165.3125 103.6875 C-165.79009766 105.12996094 -165.79009766 105.12996094 -166.27734375 106.6015625 C-170.03209854 118.37019691 -170.71736091 129.92430252 -170.6875 142.1875 C-170.68728851 142.98641663 -170.68707703 143.78533325 -170.68685913 144.60845947 C-170.65486504 156.70707903 -169.98732076 168.07724048 -166.3125 179.6875 C-165.76916016 181.50701172 -165.76916016 181.50701172 -165.21484375 183.36328125 C-161.32038567 195.23147724 -155.6933982 206.96062429 -148.34375 217.0859375 C-147.3125 218.6875 -147.3125 218.6875 -147.3125 220.6875 C-146.6525 220.6875 -145.9925 220.6875 -145.3125 220.6875 C-143.91015625 222.33203125 -143.91015625 222.33203125 -142.375 224.5 C-140.87497678 226.60617071 -139.48091488 228.52453041 -137.62109375 230.32421875 C-136.3125 231.6875 -136.3125 231.6875 -136.3125 233.6875 C-135.6525 233.6875 -134.9925 233.6875 -134.3125 233.6875 C-134.3125 234.3475 -134.3125 235.0075 -134.3125 235.6875 C-133.6525 235.6875 -132.9925 235.6875 -132.3125 235.6875 C-132.3125 236.3475 -132.3125 237.0075 -132.3125 237.6875 C-131.6525 237.6875 -130.9925 237.6875 -130.3125 237.6875 C-130.3125 238.3475 -130.3125 239.0075 -130.3125 239.6875 C-129.71695313 239.96207031 -129.12140625 240.23664063 -128.5078125 240.51953125 C-126.40627739 241.63760776 -124.93277923 242.77442985 -123.1875 244.375 C-105.38259305 259.92135639 -85.0129532 267.58774381 -62.3125 272.6875 C-61.57628418 272.8632959 -60.84006836 273.0390918 -60.08154297 273.22021484 C-56.59070345 273.80930555 -53.14739779 273.88766394 -49.6171875 273.92578125 C-48.87615784 273.93552979 -48.13512817 273.94527832 -47.37164307 273.95532227 C-24.55937269 274.24540682 -24.55937269 274.24540682 -2.3125 269.6875 C-1.09949219 269.32527344 0.11351562 268.96304687 1.36328125 268.58984375 C17.77531583 263.20435965 35.44113351 254.39367057 47.55078125 241.82421875 C48.25589844 241.11910156 48.96101562 240.41398438 49.6875 239.6875 C50.3475 239.6875 51.0075 239.6875 51.6875 239.6875 C51.6875 239.0275 51.6875 238.3675 51.6875 237.6875 C52.3475 237.6875 53.0075 237.6875 53.6875 237.6875 C53.6875 237.0275 53.6875 236.3675 53.6875 235.6875 C54.3475 235.6875 55.0075 235.6875 55.6875 235.6875 C55.6875 235.0275 55.6875 234.3675 55.6875 233.6875 C56.3475 233.6875 57.0075 233.6875 57.6875 233.6875 C58.09935547 232.79417969 58.09935547 232.79417969 58.51953125 231.8828125 C59.63760776 229.78127739 60.77442985 228.30777923 62.375 226.5625 C73.99947421 213.24924019 81.39039565 198.36792902 86.6875 181.6875 C87.00589844 180.72585938 87.32429688 179.76421875 87.65234375 178.7734375 C91.27138803 167.43016438 91.98522885 156.56714433 91.89331055 144.75146484 C91.87487947 142.29644519 91.87280269 139.84180092 91.87304688 137.38671875 C91.86813624 135.81249675 91.86230992 134.23827729 91.85546875 132.6640625 C91.85379951 131.57334946 91.85379951 131.57334946 91.85209656 130.46060181 C91.81742531 126.73871012 91.51903383 123.31277731 90.6875 119.6875 C90.54982001 117.64877701 90.46822384 115.60563565 90.4375 113.5625 C90.41171875 112.52867187 90.3859375 111.49484375 90.359375 110.4296875 C90.6875 107.6875 90.6875 107.6875 91.92578125 105.8515625 C95.26313556 103.64639269 98.86493256 103.98808096 102.6875 104.6875 C107.0397607 107.92379642 107.54604589 112.44749849 108.31640625 117.546875 C112.5657452 153.50970148 108.58045059 194.73134563 85.57421875 224.4140625 C84.95160156 225.16429687 84.32898438 225.91453125 83.6875 226.6875 C82.68443656 228.35232477 81.684436 230.01899876 80.6875 231.6875 C75.98774715 238.00372835 70.78207628 243.78779508 65.25 249.375 C64.46991577 250.16886108 64.46991577 250.16886108 63.67407227 250.97875977 C59.93454388 254.6875 59.93454388 254.6875 57.6875 254.6875 C57.6875 255.3475 57.6875 256.0075 57.6875 256.6875 C53.1111244 260.94159563 48.0902679 264.72787279 42.55859375 267.640625 C40.20906156 268.95518581 38.03910536 270.48657801 35.8125 272 C29.13684666 276.28492349 21.99221367 279.10891278 14.61621094 281.94140625 C13.00862742 282.56327653 11.41280351 283.21543969 9.8203125 283.875 C-3.87146159 289.33464824 -18.66519642 291.34722473 -33.3125 291.6875 C-34.41980469 291.71585937 -35.52710938 291.74421875 -36.66796875 291.7734375 C-39.88799076 291.81265823 -43.09342915 291.77251748 -46.3125 291.6875 C-47.45847656 291.65914063 -48.60445312 291.63078125 -49.78515625 291.6015625 C-75.11848734 290.46359469 -103.55542104 282.08383873 -123.3125 265.6875 C-124.97732477 264.68443656 -126.64399876 263.684436 -128.3125 262.6875 C-141.25440449 253.05774169 -151.85214942 241.68103562 -161.3125 228.6875 C-161.93769531 227.86894531 -162.56289062 227.05039062 -163.20703125 226.20703125 C-185.49073705 196.17684532 -191.97029588 156.12093728 -187.3125 119.6875 C-183.18148507 93.87173952 -172.11816398 70.36536865 -156.3125 49.6875 C-155.76464844 48.90246094 -155.21679688 48.11742187 -154.65234375 47.30859375 C-153.98912109 46.50615234 -153.98912109 46.50615234 -153.3125 45.6875 C-152.6525 45.6875 -151.9925 45.6875 -151.3125 45.6875 C-151.10625 45.15640625 -150.9 44.6253125 -150.6875 44.078125 C-148.74511879 40.7010304 -146.06861225 38.1483462 -143.3125 35.4375 C-142.73161621 34.86265869 -142.15073242 34.28781738 -141.55224609 33.69555664 C-134.73569351 27.03337287 -127.72942551 21.19656724 -119.3125 16.6875 C-117.74730225 15.73357913 -116.18504835 14.77481917 -114.625 13.8125 C-89.76147666 -1.04588181 -25.78500414 -22.52566373 0 0 Z " fill="#123524" transform="translate(289.3125,107.3125)"/>
<path d="M0 0 C1.14766846 0.00346436 2.29533691 0.00692871 3.4777832 0.01049805 C11.43715835 0.11285307 18.62372391 0.66578541 26.1875 3.3125 C26.91839844 3.55226562 27.64929688 3.79203125 28.40234375 4.0390625 C32.03545551 5.3912636 34.47299949 6.78264601 36.1875 10.3125 C36.5987874 13.60279921 36.51181433 15.6066394 35.125 18.625 C32.29179588 21.09262939 29.89737211 21.0131334 26.1875 21.3125 C22.6171875 20.7890625 22.6171875 20.7890625 19.0625 19.9375 C17.88429688 19.66164062 16.70609375 19.38578125 15.4921875 19.1015625 C14.40164063 18.84117187 13.31109375 18.58078125 12.1875 18.3125 C-3.08206234 14.73776525 -22.15254864 17.81252966 -35.53515625 25.97265625 C-37.8125 27.3125 -37.8125 27.3125 -40.8125 27.3125 C-40.8125 27.9725 -40.8125 28.6325 -40.8125 29.3125 C-42.15001316 30.19244287 -43.49031479 31.06828604 -44.83984375 31.9296875 C-52.62711107 37.38848479 -60.50807747 44.70365494 -64.8125 53.3125 C-65.4725 53.3125 -66.1325 53.3125 -66.8125 53.3125 C-66.92980469 53.87710938 -67.04710937 54.44171875 -67.16796875 55.0234375 C-67.87691543 57.54127237 -68.93182927 59.61026298 -70.125 61.9375 C-78.5946672 80.42796531 -79.11433927 101.09325425 -72.8125 120.3125 C-71.43979778 123.68397377 -69.78304625 126.86186044 -67.984375 130.02734375 C-66.8125 132.3125 -66.8125 132.3125 -66.8125 135.3125 C-66.1525 135.3125 -65.4925 135.3125 -64.8125 135.3125 C-63.93255713 136.65001316 -63.05671396 137.99031479 -62.1953125 139.33984375 C-56.73651521 147.12711107 -49.42134506 155.00807747 -40.8125 159.3125 C-40.8125 159.9725 -40.8125 160.6325 -40.8125 161.3125 C-40.25304687 161.42851562 -39.69359375 161.54453125 -39.1171875 161.6640625 C-36.52571812 162.39318778 -34.34357963 163.48080353 -31.9375 164.6875 C-25.4409724 167.70873461 -18.82653265 169.03092366 -11.8125 170.3125 C-10.57306641 170.59287109 -10.57306641 170.59287109 -9.30859375 170.87890625 C5.3801187 173.43046663 23.15864013 170.42765846 35.91015625 162.65234375 C38.1875 161.3125 38.1875 161.3125 41.1875 161.3125 C41.1875 160.6525 41.1875 159.9925 41.1875 159.3125 C44.14937272 157.14046 46.69435991 155.47688003 50.1875 154.3125 C50.1875 153.6525 50.1875 152.9925 50.1875 152.3125 C51.7265625 150.8671875 51.7265625 150.8671875 53.8125 149.1875 C58.45628426 145.25306822 62.448418 140.790664 65.1875 135.3125 C65.8475 135.3125 66.5075 135.3125 67.1875 135.3125 C67.30480469 134.74789062 67.42210937 134.18328125 67.54296875 133.6015625 C68.25191543 131.08372763 69.30682927 129.01473702 70.5 126.6875 C77.84147655 110.66003231 79.2720298 93.35558635 74.875 76.359375 C73.81253872 71.65073978 73.32133219 67.08879678 74.1875 62.3125 C76.25 59.5625 76.25 59.5625 79.1875 58.3125 C85.07652368 58.41403489 85.07652368 58.41403489 87.80078125 60.6171875 C89.35018128 62.5113836 90.01079138 64.04754886 90.75 66.375 C90.97816406 67.06722656 91.20632813 67.75945312 91.44140625 68.47265625 C96.12093496 86.28426554 96.30790586 105.84186778 90.1875 123.3125 C89.96787598 123.95219727 89.74825195 124.59189453 89.52197266 125.25097656 C86.47461553 133.97681304 82.47934647 141.72933857 77.1875 149.3125 C76.5275 150.3025 75.8675 151.2925 75.1875 152.3125 C74.5275 152.3125 73.8675 152.3125 73.1875 152.3125 C72.91550781 152.9003125 72.64351562 153.488125 72.36328125 154.09375 C69.55015085 159.40224856 65.0951225 163.90442882 60.1875 167.3125 C59.5275 167.3125 58.8675 167.3125 58.1875 167.3125 C58.1875 167.9725 58.1875 168.6325 58.1875 169.3125 C36.87651534 185.58939379 10.99097345 191.19496991 -15.32861328 188.0078125 C-19.97347238 187.20197724 -24.36034736 185.87220206 -28.8125 184.3125 C-29.45219727 184.09287598 -30.09189453 183.87325195 -30.75097656 183.64697266 C-39.47681304 180.59961553 -47.22933857 176.60434647 -54.8125 171.3125 C-55.8025 170.6525 -56.7925 169.9925 -57.8125 169.3125 C-57.8125 168.6525 -57.8125 167.9925 -57.8125 167.3125 C-58.4003125 167.04050781 -58.988125 166.76851562 -59.59375 166.48828125 C-64.90224856 163.67515085 -69.40442882 159.2201225 -72.8125 154.3125 C-72.8125 153.6525 -72.8125 152.9925 -72.8125 152.3125 C-73.4725 152.3125 -74.1325 152.3125 -74.8125 152.3125 C-76.34558478 150.32255596 -77.71516797 148.36229054 -79.0625 146.25 C-79.46291504 145.6223877 -79.86333008 144.99477539 -80.27587891 144.34814453 C-86.58513344 134.1332816 -90.34960382 123.04226452 -92.8125 111.3125 C-92.98378418 110.54542725 -93.15506836 109.77835449 -93.33154297 108.98803711 C-95.90102227 94.69416724 -94.55049593 78.96907651 -89.8125 65.3125 C-89.59287598 64.67135254 -89.37325195 64.03020508 -89.14697266 63.36962891 C-86.09957297 54.64582724 -82.10317279 46.89397957 -76.8125 39.3125 C-76.1525 38.3225 -75.4925 37.3325 -74.8125 36.3125 C-74.1525 36.3125 -73.4925 36.3125 -72.8125 36.3125 C-72.55210937 35.73628906 -72.29171875 35.16007812 -72.0234375 34.56640625 C-70.72530192 32.15019905 -69.2505757 30.30455521 -67.4375 28.25 C-66.85226563 27.57839844 -66.26703125 26.90679687 -65.6640625 26.21484375 C-63.82230971 24.32257875 -62.01521456 22.76737937 -59.8125 21.3125 C-59.1525 21.3125 -58.4925 21.3125 -57.8125 21.3125 C-57.8125 20.6525 -57.8125 19.9925 -57.8125 19.3125 C-40.96541738 6.4450432 -21.01927074 -0.10272749 0 0 Z " fill="#123524" transform="translate(249.8125,155.6875)"/>
<path d="M0 0 C3.1120231 0.82663114 4.09411627 1.90326125 6 4.53125 C7.04771178 7.85444894 7.6192457 11.22274724 8.1875 14.65625 C8.4340332 16.00589844 8.4340332 16.00589844 8.68554688 17.3828125 C9.75494946 23.40956712 10.47637402 29.43409967 11 35.53125 C11.64437012 35.5813623 12.28874023 35.63147461 12.95263672 35.68310547 C15.92728091 35.91798785 18.90110515 36.16206991 21.875 36.40625 C22.88820313 36.48488281 23.90140625 36.56351563 24.9453125 36.64453125 C42.25406435 38.08692724 42.25406435 38.08692724 45.74536133 40.97509766 C47.8328337 43.56422957 47.5856002 45.95100154 47.49609375 49.16796875 C46.64998484 53.19864506 44.16268383 55.98307728 41 58.53125 C40.34 58.53125 39.68 58.53125 39 58.53125 C38.79761719 59.06234375 38.59523438 59.5934375 38.38671875 60.140625 C36.39547572 63.57341579 33.6553508 66.04024216 30.8125 68.78125 C26.54307612 72.96652427 22.44135994 77.19131441 18.55859375 81.7421875 C15.88046048 84.81633546 13.11850713 87.89820968 10 90.53125 C9.34 90.53125 8.68 90.53125 8 90.53125 C8 91.19125 8 91.85125 8 92.53125 C-0.36593333 92.88278032 -8.36735098 91.78988239 -16.625 90.53125 C-17.91535156 90.34046875 -19.20570313 90.1496875 -20.53515625 89.953125 C-23.69111855 89.48557503 -26.84594645 89.01147844 -30 88.53125 C-30 89.19125 -30 89.85125 -30 90.53125 C-30.66 90.53125 -31.32 90.53125 -32 90.53125 C-32 91.19125 -32 91.85125 -32 92.53125 C-32.66 92.53125 -33.32 92.53125 -34 92.53125 C-34 93.19125 -34 93.85125 -34 94.53125 C-35.375 96.15625 -35.375 96.15625 -37 97.53125 C-37.66 97.53125 -38.32 97.53125 -39 97.53125 C-39 98.19125 -39 98.85125 -39 99.53125 C-39.66 99.53125 -40.32 99.53125 -41 99.53125 C-41 100.19125 -41 100.85125 -41 101.53125 C-43.375 104.15625 -43.375 104.15625 -46 106.53125 C-46.66 106.53125 -47.32 106.53125 -48 106.53125 C-48.226875 107.10875 -48.45375 107.68625 -48.6875 108.28125 C-50.33488275 111.10533471 -52.43454838 112.5289463 -55 114.53125 C-55.556875 115.27375 -56.11375 116.01625 -56.6875 116.78125 C-57.120625 117.35875 -57.55375 117.93625 -58 118.53125 C-58.66 118.53125 -59.32 118.53125 -60 118.53125 C-60 119.19125 -60 119.85125 -60 120.53125 C-61.609375 122.08203125 -61.609375 122.08203125 -63.75 123.84375 C-66.91761349 126.51887235 -69.43092965 129.27050686 -72 132.53125 C-72.66 132.53125 -73.32 132.53125 -74 132.53125 C-74.268125 133.170625 -74.53625 133.81 -74.8125 134.46875 C-76 136.53125 -76 136.53125 -79 137.53125 C-79 138.19125 -79 138.85125 -79 139.53125 C-80.375 141.15625 -80.375 141.15625 -82 142.53125 C-82.66 142.53125 -83.32 142.53125 -84 142.53125 C-84 143.19125 -84 143.85125 -84 144.53125 C-84.66 144.53125 -85.32 144.53125 -86 144.53125 C-86 145.19125 -86 145.85125 -86 146.53125 C-93.96743153 147.94427739 -93.96743153 147.94427739 -97.5 146.53125 C-99.73799445 143.5472574 -99.93629305 141.22625327 -100 137.53125 C-98.02545393 133.56096664 -95.40190971 130.68027494 -92.28491211 127.55737305 C-91.81951523 127.08847153 -91.35411835 126.61957001 -90.87461853 126.13645935 C-89.34715899 124.60025313 -87.81256778 123.07141249 -86.27734375 121.54296875 C-85.20995824 120.47423524 -84.14286971 119.40520505 -83.07606506 118.33589172 C-80.84585664 116.10274221 -78.61208914 113.87323209 -76.37573242 111.64624023 C-73.50491244 108.78685575 -70.64321982 105.91853043 -67.78409481 103.0474577 C-65.58559565 100.84174791 -63.3823757 98.64080351 -61.17767525 96.44129372 C-60.12001146 95.38496649 -59.06383795 94.32714498 -58.00916862 93.26782799 C-56.53945036 91.79305311 -55.06351376 90.32480401 -53.58569336 88.8581543 C-52.74646835 88.02052048 -51.90724335 87.18288666 -51.04258728 86.31987 C-49 84.53125 -49 84.53125 -47 84.53125 C-46.34 82.88125 -45.68 81.23125 -45 79.53125 C-44.34 79.53125 -43.68 79.53125 -43 79.53125 C-43.13277344 78.69207031 -43.26554687 77.85289062 -43.40234375 76.98828125 C-44.550301 69.17044101 -45.36225843 61.35448073 -45.875 53.46875 C-45.948396 52.57712158 -46.02179199 51.68549316 -46.09741211 50.7668457 C-46.41595105 45.08310106 -45.83487691 42.04245975 -42 37.53125 C-40.37897032 35.82016311 -38.70496537 34.15871694 -37 32.53125 C-35.57898711 31.13984154 -34.1625806 29.74371828 -32.75 28.34375 C-32.06421875 27.66957031 -31.3784375 26.99539062 -30.671875 26.30078125 C-28.92550889 24.62326005 -28.92550889 24.62326005 -28 22.53125 C-27.34 22.53125 -26.68 22.53125 -26 22.53125 C-26 21.87125 -26 21.21125 -26 20.53125 C-25.34 20.53125 -24.68 20.53125 -24 20.53125 C-23.505 19.04625 -23.505 19.04625 -23 17.53125 C-22.34 17.53125 -21.68 17.53125 -21 17.53125 C-21 16.87125 -21 16.21125 -21 15.53125 C-20.34 15.53125 -19.68 15.53125 -19 15.53125 C-18.73960937 14.9434375 -18.47921875 14.355625 -18.2109375 13.75 C-16.53255697 10.67477375 -14.23877598 8.61729893 -11.72265625 6.21484375 C-9.87866377 4.48279523 -9.87866377 4.48279523 -8.0625 2.09375 C-5.33811863 0.02982472 -3.34324349 0.05223818 0 0 Z M-12.0625 30.40625 C-12.79597656 31.12554687 -13.52945313 31.84484375 -14.28515625 32.5859375 C-16.22042428 34.34909067 -16.22042428 34.34909067 -16 36.53125 C-16.66 36.53125 -17.32 36.53125 -18 36.53125 C-18 37.19125 -18 37.85125 -18 38.53125 C-18.66 38.53125 -19.32 38.53125 -20 38.53125 C-20 39.19125 -20 39.85125 -20 40.53125 C-20.66 40.53125 -21.32 40.53125 -22 40.53125 C-23.82154819 42.02423561 -23.82154819 42.02423561 -25.625 44.03125 C-26.25664062 44.6809375 -26.88828125 45.330625 -27.5390625 46 C-30.71784368 51.50762086 -28.833424 58.94950729 -28 65.03125 C-27.90460938 65.75828125 -27.80921875 66.4853125 -27.7109375 67.234375 C-27.47853833 69.00060867 -27.23993362 70.76602406 -27 72.53125 C-22.75237731 73.09277893 -18.50175828 73.6270227 -14.25 74.15625 C-13.0434375 74.31609375 -11.836875 74.4759375 -10.59375 74.640625 C-9.43359375 74.78242188 -8.2734375 74.92421875 -7.078125 75.0703125 C-6.00981445 75.20646973 -4.94150391 75.34262695 -3.84082031 75.48291016 C0.0659155 75.54938779 1.86752532 74.4993957 4.78344727 72.0065918 C5.37182373 71.42047119 5.9602002 70.83435059 6.56640625 70.23046875 C7.21673828 69.58271484 7.86707031 68.93496094 8.53710938 68.26757812 C9.20548828 67.59146484 9.87386719 66.91535156 10.5625 66.21875 C11.23474609 65.55423828 11.90699219 64.88972656 12.59960938 64.20507812 C15.92782804 60.86363913 18.82589572 57.77280439 21 53.53125 C18.81347261 53.19159526 16.62571975 52.85982523 14.4375 52.53125 C13.21933594 52.345625 12.00117188 52.16 10.74609375 51.96875 C7.12372152 51.54569923 3.64287954 51.45623575 0 51.53125 C0 50.87125 0 50.21125 0 49.53125 C-0.66 49.53125 -1.32 49.53125 -2 49.53125 C-2 48.87125 -2 48.21125 -2 47.53125 C-2.66 47.53125 -3.32 47.53125 -4 47.53125 C-4.04898438 46.85320312 -4.09796875 46.17515625 -4.1484375 45.4765625 C-4.66564213 39.03825659 -5.59181121 32.83392023 -7 26.53125 C-9.04357409 26.53125 -10.72208706 29.07765728 -12.0625 30.40625 Z " fill="#123524" transform="translate(345,107.46875)"/>
<path d="M0 0 C1.03125 -0.03738281 2.0625 -0.07476562 3.125 -0.11328125 C6.72879725 0.42043329 7.84667369 1.41944277 10 4.3125 C10.78459698 7.08293899 10.62807537 9.51209055 10 12.3125 C7.07032266 16.28849068 3.58076471 16.71194897 -1.0625 17.5 C-2.08472656 17.63792969 -3.10695312 17.77585938 -4.16015625 17.91796875 C-6.51116121 18.24458705 -8.7159402 18.68260341 -11 19.3125 C-11 19.9725 -11 20.6325 -11 21.3125 C-12.24059937 22.34977073 -13.51853905 23.34261216 -14.8125 24.3125 C-19.52755513 28.35875298 -21.26076526 32.17596098 -22 38.3125 C-21.963372 43.7700716 -21.11016798 48.98177961 -20 54.3125 C-19.34 54.3125 -18.68 54.3125 -18 54.3125 C-16.31267723 56.29510426 -14.64633943 58.2957342 -13 60.3125 C-12.34 60.6425 -11.68 60.9725 -11 61.3125 C-11 61.9725 -11 62.6325 -11 63.3125 C-1.95429363 65.68675265 5.90846923 65.22221113 15 63.3125 C15 62.6525 15 61.9925 15 61.3125 C16.24059937 60.27522927 17.51853905 59.28238784 18.8125 58.3125 C23.60367142 54.23958179 24.80770833 50.34733014 26 44.3125 C26.3294338 42.64505817 26.66254738 40.97833751 27 39.3125 C27.12375 38.590625 27.2475 37.86875 27.375 37.125 C28 35.3125 28 35.3125 31 33.3125 C37.96774194 32.53830645 37.96774194 32.53830645 41.5 35.1875 C44.7521816 41.96287833 43.28013995 49.52075261 41.1640625 56.51171875 C36.41007894 67.94999463 27.34318716 75.81447584 16.140625 80.5859375 C5.9895428 84.03137781 -6.14283505 83.39704388 -16 79.3125 C-19.2012633 77.56253828 -22.26360888 75.73809114 -25 73.3125 C-25 72.6525 -25 71.9925 -25 71.3125 C-25.99 70.9825 -26.98 70.6525 -28 70.3125 C-28 69.6525 -28 68.9925 -28 68.3125 C-28.66 68.3125 -29.32 68.3125 -30 68.3125 C-37.92775995 57.9335385 -40.01569162 47.1392342 -39 34.3125 C-37.55401321 23.59518615 -31.85596223 15.1869681 -23.5625 8.375 C-16.33052499 3.15746786 -8.915737 0.21174875 0 0 Z " fill="#123524" transform="translate(248,208.6875)"/>
<path d="M0 0 C0.33 0 0.66 0 1 0 C1.02505615 0.8971875 1.0501123 1.794375 1.07592773 2.71875 C1.17166313 6.08099431 1.27085629 9.44310112 1.37231445 12.80517578 C1.41534491 14.25402915 1.45703893 15.7029229 1.49731445 17.15185547 C1.78895025 28.11214522 1.78895025 28.11214522 3 39 C2.67 38.34 2.34 37.68 2 37 C1.34 37 0.68 37 0 37 C-0.91014662 32.44620241 -1.05131709 28.26874841 -0.87890625 23.6328125 C-0.85529526 22.95322479 -0.83168427 22.27363708 -0.80735779 21.57345581 C-0.73138273 19.4237221 -0.64707883 17.27441063 -0.5625 15.125 C-0.50921284 13.65887415 -0.45647301 12.19272831 -0.40429688 10.7265625 C-0.27585887 7.15078848 -0.13995444 3.57534393 0 0 Z " fill="#123524" transform="translate(117,237)"/>
<path d="M0 0 C0.99 0.33 1.98 0.66 3 1 C1.6875 4.4375 1.6875 4.4375 0 8 C-3 9 -3 9 -6 8 C-6.33 8.99 -6.66 9.98 -7 11 C-7.66 10.67 -8.32 10.34 -9 10 C-8.34 9.01 -7.68 8.02 -7 7 C-6.34 7 -5.68 7 -5 7 C-5 6.34 -5 5.68 -5 5 C-4.34 5 -3.68 5 -3 5 C-2.67 4.01 -2.34 3.02 -2 2 C-1.34 2 -0.68 2 0 2 C0 1.34 0 0.68 0 0 Z " fill="#123524" transform="translate(324,123)"/>
<path d="M0 0 C-5.14285714 4.42857143 -5.14285714 4.42857143 -9 5 C-8.62875 5.721875 -8.2575 6.44375 -7.875 7.1875 C-6.81025859 10.60988311 -7.39660152 11.88228073 -9 15 C-9.33 15 -9.66 15 -10 15 C-10.77917697 4.95727457 -10.77917697 4.95727457 -7.8125 1.3125 C-4.89851072 -0.04736166 -3.16833849 -0.36209583 0 0 Z " fill="#123524" transform="translate(334,214)"/>
<path d="M0 0 C0.33 0.99 0.66 1.98 1 3 C-4.445 6.96 -4.445 6.96 -10 11 C-10.66 10.67 -11.32 10.34 -12 10 C-10.37744772 8.51814875 -8.75188112 7.03959744 -7.125 5.5625 C-6.22007812 4.73878906 -5.31515625 3.91507813 -4.3828125 3.06640625 C-2 1 -2 1 0 0 Z " fill="#123524" transform="translate(160,131)"/>
<path d="M0 0 C0.33 0.99 0.66 1.98 1 3 C1.99 3.33 2.98 3.66 4 4 C2.21189234 4.69670416 0.41937948 5.38211189 -1.375 6.0625 C-2.37273437 6.44535156 -3.37046875 6.82820313 -4.3984375 7.22265625 C-7 8 -7 8 -9 7 C-8.01 6.67 -7.02 6.34 -6 6 C-6 5.34 -6 4.68 -6 4 C-5.34 4 -4.68 4 -4 4 C-3.67 3.34 -3.34 2.68 -3 2 C-2.01 1.34 -1.02 0.68 0 0 Z " fill="#123524" transform="translate(304,384)"/>
<path d="M0 0 C0.99 0.33 1.98 0.66 3 1 C-0.07881696 4.87051275 -3.00073014 8.02911382 -7 11 C-7.4375 8.875 -7.4375 8.875 -7 6 C-4.95580695 3.60411783 -2.74197701 1.56181132 0 0 Z " fill="#123524" transform="translate(370,178)"/>
<path d="M0 0 C0.66 0.33 1.32 0.66 2 1 C0.625 2.5 0.625 2.5 -1 4 C-1.66 4 -2.32 4 -3 4 C-3.268125 4.598125 -3.53625 5.19625 -3.8125 5.8125 C-4.99917406 7.99847854 -6.09599113 9.41332594 -8 11 C-8.66 11 -9.32 11 -10 11 C-8.55218207 7.55571735 -6.72305391 5.63869038 -3.875 3.25 C-3.15054688 2.63640625 -2.42609375 2.0228125 -1.6796875 1.390625 C-0.84824219 0.70226562 -0.84824219 0.70226562 0 0 Z " fill="#123524" transform="translate(190,177)"/>
<path d="M0 0 C0.66 0.99 1.32 1.98 2 3 C1.34 3 0.68 3 0 3 C-0.66 4.32 -1.32 5.64 -2 7 C-2.99 7 -3.98 7 -5 7 C-5 5.35 -5 3.7 -5 2 C-3.35 1.34 -1.7 0.68 0 0 Z " fill="#123524" transform="translate(271,237)"/>
<path d="M0 0 C0.99 0.99 1.98 1.98 3 3 C1.35 4.98 -0.3 6.96 -2 9 C-2.66 7.68 -3.32 6.36 -4 5 C-2.68 3.35 -1.36 1.7 0 0 Z " fill="#123524" transform="translate(141,169)"/>
<path d="M0 0 C3.3 0.33 6.6 0.66 10 1 C10 1.33 10 1.66 10 2 C7.98177083 2.45572917 5.96354167 2.91145833 3.9453125 3.3671875 C1.79280036 3.90474428 1.79280036 3.90474428 0 6 C-1.125 2.25 -1.125 2.25 0 0 Z " fill="#123524" transform="translate(208,377)"/>
<path d="M0 0 C0.33 1.32 0.66 2.64 1 4 C-0.6875 6.3125 -0.6875 6.3125 -3 8 C-4.32 7.67 -5.64 7.34 -7 7 C-4.69 4.69 -2.38 2.38 0 0 Z " fill="#123524" transform="translate(292,196)"/>
<path d="M0 0 C0.33 0.66 0.66 1.32 1 2 C1.66 2 2.32 2 3 2 C3 2.66 3 3.32 3 4 C4.32 4.66 5.64 5.32 7 6 C5.02 6.99 5.02 6.99 3 8 C1.5 6.8125 1.5 6.8125 0 5 C-0.1875 2.3125 -0.1875 2.3125 0 0 Z " fill="#123524" transform="translate(156,343)"/>
<path d="M0 0 C0.66 0.33 1.32 0.66 2 1 C-1.99613521 4.71069698 -4.37082652 6.59791618 -10 7 C-7.01767477 3.67356033 -4.13629913 1.70847138 0 0 Z " fill="#123524" transform="translate(235,211)"/>
<path d="M0 0 C0.33 0.99 0.66 1.98 1 3 C-1.12055614 6.1808342 -2.63050557 7.31525278 -6 9 C-6.66 8.67 -7.32 8.34 -8 8 C-5.36 5.36 -2.72 2.72 0 0 Z " fill="#123524" transform="translate(314,134)"/>
<path d="M0 0 C-2.33333333 2.33333333 -4.66666667 4.66666667 -7 7 C-8 4 -8 4 -7.25 1.875 C-5.12549708 -1.31175437 -3.46820912 -1.15606971 0 0 Z " fill="#123524" transform="translate(308,308)"/>
<path d="M0 0 C3.96 0 7.92 0 12 0 C12.33 0.99 12.66 1.98 13 3 C8.71 2.34 4.42 1.68 0 1 C0 0.67 0 0.34 0 0 Z " fill="#123524" transform="translate(214,394)"/>
<path d="M0 0 C1.32 0.66 2.64 1.32 4 2 C3.34 2 2.68 2 2 2 C1.731875 2.61875 1.46375 3.2375 1.1875 3.875 C0 6 0 6 -3 8 C-3 6.35 -3 4.7 -3 3 C-2.01 2.67 -1.02 2.34 0 2 C0 1.34 0 0.68 0 0 Z " fill="#123524" transform="translate(382,164)"/>
<path d="M0 0 C0.33 1.32 0.66 2.64 1 4 C-0.8125 5.5625 -0.8125 5.5625 -3 7 C-3.99 6.67 -4.98 6.34 -6 6 C-4.02 4.02 -2.04 2.04 0 0 Z " fill="#123524" transform="translate(256,232)"/>
<path d="M0 0 C0.66 0.33 1.32 0.66 2 1 C1.34 2.98 0.68 4.96 0 7 C-1.65 6.67 -3.3 6.34 -5 6 C-3.625 4 -3.625 4 -2 2 C-1.34 2 -0.68 2 0 2 C0 1.34 0 0.68 0 0 Z " fill="#123524" transform="translate(300,308)"/>
<path d="M0 0 C0.66 0.66 1.32 1.32 2 2 C0.9024777 4.99324263 0.32317108 5.84610901 -2.625 7.25 C-3.40875 7.4975 -4.1925 7.745 -5 8 C-3.35 5.36 -1.7 2.72 0 0 Z " fill="#123524" transform="translate(131,160)"/>
<path d="M0 0 C1.98 0.495 1.98 0.495 4 1 C2.25 4.875 2.25 4.875 0 6 C-1.125 2.25 -1.125 2.25 0 0 Z " fill="#123524" transform="translate(278,274)"/>
<path d="M0 0 C0.99 0.33 1.98 0.66 3 1 C3 2.65 3 4.3 3 6 C2.67 5.34 2.34 4.68 2 4 C-0.02463255 3.34786708 -0.02463255 3.34786708 -2 3 C-2 2.34 -2 1.68 -2 1 C-1.34 0.67 -0.68 0.34 0 0 Z " fill="#123524" transform="translate(254,213)"/>
<path d="M0 0 C1.32 0 2.64 0 4 0 C4 0.99 4 1.98 4 3 C3.34 3 2.68 3 2 3 C2 3.66 2 4.32 2 5 C0.68 4.67 -0.64 4.34 -2 4 C-2 3.34 -2 2.68 -2 2 C-1.34 2 -0.68 2 0 2 C0 1.34 0 0.68 0 0 Z " fill="#123524" transform="translate(304,202)"/>
<path d="M0 0 C1.65 0.33 3.3 0.66 5 1 C3.68 2.32 2.36 3.64 1 5 C1 4.34 1 3.68 1 3 C0.34 3 -0.32 3 -1 3 C-0.67 2.01 -0.34 1.02 0 0 Z " fill="#123524" transform="translate(357,347)"/>
<path d="M0 0 C1 2 2 4 3 6 C2.0625 8.625 2.0625 8.625 1 11 C0.67 11 0.34 11 0 11 C0 7.37 0 3.74 0 0 Z " fill="#123524" transform="translate(324,218)"/>
</svg>
