<?xml version="1.0" encoding="UTF-8"?>
<svg version="1.1" xmlns="http://www.w3.org/2000/svg" width="200" height="200">
<path d="M0 0 C34.98 0 69.96 0 106 0 C107.43509221 2.87018441 107.11158506 5.33543723 107.09765625 8.5390625 C107.09443359 9.84101562 107.09121094 11.14296875 107.08789062 12.484375 C107.07953466 13.86458399 107.07106971 15.24479232 107.0625 16.625 C107.05748501 18.01301926 107.0529221 19.40104022 107.04882812 20.7890625 C107.03700976 24.19275132 107.02053434 27.59635439 107 31 C108.02939697 30.98428955 108.02939697 30.98428955 109.07958984 30.96826172 C112.17802289 30.92678126 115.27639761 30.90069931 118.375 30.875 C119.45523438 30.85824219 120.53546875 30.84148437 121.6484375 30.82421875 C122.6796875 30.81777344 123.7109375 30.81132812 124.7734375 30.8046875 C126.20308838 30.78897705 126.20308838 30.78897705 127.66162109 30.77294922 C130 31 130 31 132 33 C132.18734807 35.5577248 132.25574143 38.00512411 132.23046875 40.5625 C132.23001053 41.30959229 132.22955231 42.05668457 132.2290802 42.82641602 C132.22605775 44.40675443 132.21817164 45.98708986 132.20581055 47.56738281 C132.1875727 49.9903414 132.18530073 52.41291749 132.18554688 54.8359375 C132.18063092 56.36979498 132.17480226 57.90364986 132.16796875 59.4375 C132.16685593 60.16461182 132.1657431 60.89172363 132.16459656 61.64086914 C132.11607343 66.76785315 132.11607343 66.76785315 131 69 C79.52 69 28.04 69 -25 69 C-26.52264109 65.95471781 -26.16285537 62.77854754 -26.16796875 59.4375 C-26.17129715 58.69040771 -26.17462555 57.94331543 -26.17805481 57.17358398 C-26.18311966 55.59326799 -26.18546327 54.01294129 -26.18530273 52.43261719 C-26.18749134 50.00958757 -26.20565701 47.58701164 -26.22460938 45.1640625 C-26.22754292 43.6302099 -26.22952798 42.09635512 -26.23046875 40.5625 C-26.23765427 39.83538818 -26.24483978 39.10827637 -26.25224304 38.35913086 C-26.22882803 33.22882803 -26.22882803 33.22882803 -24 31 C-21.66162109 30.77294922 -21.66162109 30.77294922 -18.7734375 30.8046875 C-17.2265625 30.81435547 -17.2265625 30.81435547 -15.6484375 30.82421875 C-14.02808594 30.84935547 -14.02808594 30.84935547 -12.375 30.875 C-11.28703125 30.88402344 -10.1990625 30.89304688 -9.078125 30.90234375 C-6.38519848 30.92596591 -3.69270745 30.95890444 -1 31 C-1.00785522 29.69796631 -1.00785522 29.69796631 -1.01586914 28.36962891 C-1.03289862 25.15299727 -1.04544408 21.93638859 -1.05493164 18.71972656 C-1.0599643 17.32681523 -1.06679098 15.9339092 -1.07543945 14.54101562 C-1.08755152 12.54038754 -1.09270412 10.53972112 -1.09765625 8.5390625 C-1.10289307 7.33459473 -1.10812988 6.13012695 -1.11352539 4.88916016 C-1 2 -1 2 0 0 Z M7 7 C7 14.92 7 22.84 7 31 C20.86 31 34.72 31 49 31 C49 23.08 49 15.16 49 7 C35.14 7 21.28 7 7 7 Z M57 7 C57 14.92 57 22.84 57 31 C70.86 31 84.72 31 99 31 C99 23.08 99 15.16 99 7 C85.14 7 71.28 7 57 7 Z M-18 38 C-18 45.92 -18 53.84 -18 62 C-4.14 62 9.72 62 24 62 C24 54.08 24 46.16 24 38 C10.14 38 -3.72 38 -18 38 Z M32 38 C32 45.92 32 53.84 32 62 C45.86 62 59.72 62 74 62 C74 54.08 74 46.16 74 38 C60.14 38 46.28 38 32 38 Z M82 38 C82 45.92 82 53.84 82 62 C95.86 62 109.72 62 124 62 C124 54.08 124 46.16 124 38 C110.14 38 96.28 38 82 38 Z " fill="#F5FDC6" transform="translate(47,103)"/>
<path d="M0 0 C0.93999847 0.42926537 0.93999847 0.42926537 1.89898682 0.86720276 C3.88129756 1.77550676 5.8546702 2.70154176 7.828125 3.62890625 C9.81758196 4.54854272 11.80869413 5.46451232 13.80010986 6.37989807 C15.59830838 7.20888195 17.39252793 8.04648074 19.18652344 8.88452148 C22.05666745 10.24122624 22.05666745 10.24122624 25.078125 11.19140625 C25.0575 10.38703125 25.036875 9.58265625 25.015625 8.75390625 C25.078125 6.19140625 25.078125 6.19140625 26.078125 5.19140625 C28.38805882 5.06583463 30.70231036 5.01564896 33.015625 5.00390625 C34.28277344 4.98972656 35.54992187 4.97554687 36.85546875 4.9609375 C40.078125 5.19140625 40.078125 5.19140625 42.078125 7.19140625 C41.703125 9.81640625 41.703125 9.81640625 41.078125 12.19140625 C38.108125 12.19140625 35.138125 12.19140625 32.078125 12.19140625 C32.078125 20.11140625 32.078125 28.03140625 32.078125 36.19140625 C34.718125 36.19140625 37.358125 36.19140625 40.078125 36.19140625 C41.140625 38.56640625 41.140625 38.56640625 42.078125 41.19140625 C41.583125 42.18140625 41.583125 42.18140625 41.078125 43.19140625 C38.59888699 43.2182572 36.1199366 43.23817172 33.640625 43.25390625 C32.93357422 43.26228516 32.22652344 43.27066406 31.49804688 43.27929688 C29.69118941 43.28794213 27.88424897 43.24360636 26.078125 43.19140625 C25.078125 42.19140625 25.078125 42.19140625 25.015625 39.62890625 C25.03625 38.82453125 25.056875 38.02015625 25.078125 37.19140625 C17.49503271 37.16959777 17.49503271 37.16959777 11.140625 40.75390625 C6.99290301 44.05515437 3.94202844 43.67277274 -1.21484375 43.5625 C-3.921875 43.19140625 -3.921875 43.19140625 -6.921875 41.19140625 C-7.05464844 41.75730469 -7.18742187 42.32320312 -7.32421875 42.90625 C-7.50082031 43.63972656 -7.67742187 44.37320313 -7.859375 45.12890625 C-8.03339844 45.85980469 -8.20742187 46.59070313 -8.38671875 47.34375 C-8.921875 49.19140625 -8.921875 49.19140625 -9.921875 50.19140625 C-11.59878848 50.30059764 -13.28027197 50.3404746 -14.96069336 50.35253906 C-16.5725779 50.36695038 -16.5725779 50.36695038 -18.21702576 50.38165283 C-19.38677444 50.38590271 -20.55652313 50.39015259 -21.76171875 50.39453125 C-22.95414688 50.40023132 -24.14657501 50.4059314 -25.37513733 50.4118042 C-27.90299589 50.42127079 -30.43086688 50.42779473 -32.95874023 50.43164062 C-36.8392471 50.44135586 -40.71922676 50.47236844 -44.59960938 50.50390625 C-47.049476 50.51043482 -49.49934644 50.51568586 -51.94921875 50.51953125 C-53.11694321 50.53187805 -54.28466766 50.54422485 -55.48777771 50.5569458 C-56.56551956 50.5539447 -57.64326141 50.5509436 -58.75366211 50.54785156 C-59.70550888 50.55149719 -60.65735565 50.55514282 -61.63804626 50.55889893 C-62.39170975 50.43762634 -63.14537323 50.31635376 -63.921875 50.19140625 C-66.32678605 46.58403967 -66.21170363 43.9517935 -66.1875 39.78515625 C-66.18941345 39.06404663 -66.1913269 38.34293701 -66.19329834 37.59997559 C-66.19465801 36.07690074 -66.19097677 34.55381423 -66.18261719 33.03076172 C-66.17191414 30.69993042 -66.18251938 28.36986983 -66.1953125 26.0390625 C-66.19399087 24.55859205 -66.19142839 23.07812208 -66.1875 21.59765625 C-66.19357269 20.5522467 -66.19357269 20.5522467 -66.19976807 19.48571777 C-66.16434829 15.82944664 -66.00817882 14.32086197 -63.921875 11.19140625 C-61.35571265 10.98879934 -59.01493837 10.96661826 -56.45703125 11.06640625 C-54.91864416 11.08314305 -53.38022826 11.09738154 -51.84179688 11.109375 C-49.42427234 11.14205414 -47.01144517 11.19036051 -44.59545898 11.28369141 C-34.41054374 11.87565589 -34.41054374 11.87565589 -25.47998047 7.74609375 C-23.49170443 5.84651824 -21.83924536 3.89655556 -20.08374023 1.7578125 C-14.35838805 -5.03890147 -7.47322882 -3.47015859 0 0 Z M-11.921875 4.19140625 C-13.50028072 5.74845819 -13.50028072 5.74845819 -15.046875 7.69140625 C-15.58570312 8.34109375 -16.12453125 8.99078125 -16.6796875 9.66015625 C-17.08960938 10.16546875 -17.49953125 10.67078125 -17.921875 11.19140625 C-16.6225 11.31515625 -15.323125 11.43890625 -13.984375 11.56640625 C-11.76953125 11.77734375 -11.76953125 11.77734375 -9.921875 12.19140625 C-8.61727586 14.80060453 -8.7892156 16.7808324 -8.796875 19.69140625 C-8.79300781 21.1609375 -8.79300781 21.1609375 -8.7890625 22.66015625 C-8.921875 25.19140625 -8.921875 25.19140625 -9.921875 27.19140625 C-20.811875 27.68640625 -20.811875 27.68640625 -31.921875 28.19140625 C-32.251875 29.51140625 -32.581875 30.83140625 -32.921875 32.19140625 C-31.10388893 34.00939232 -28.25321074 33.38649625 -25.8046875 33.4375 C-24.55816406 33.47037109 -23.31164062 33.50324219 -22.02734375 33.53710938 C-19.38159368 33.5981252 -16.73575556 33.65543927 -14.08984375 33.70898438 C-12.84074219 33.74314453 -11.59164062 33.77730469 -10.3046875 33.8125 C-8.57822998 33.85008423 -8.57822998 33.85008423 -6.81689453 33.88842773 C-3.921875 34.19140625 -3.921875 34.19140625 -0.921875 36.19140625 C1.90794091 36.77669402 1.90794091 36.77669402 5.078125 36.19140625 C6.67587849 34.9197249 8.2733141 33.64763489 9.8671875 32.37109375 C14.46269212 29.91907538 19.96815504 30.27593207 25.078125 30.19140625 C25.078125 26.23140625 25.078125 22.27140625 25.078125 18.19140625 C24.04429687 17.98773438 23.01046875 17.7840625 21.9453125 17.57421875 C15.37653058 15.93274702 9.33385455 12.88037868 3.203125 10.06640625 C0.77028144 8.9549902 -1.66504317 7.84947367 -4.1015625 6.74609375 C-5.17132324 6.25608887 -6.24108398 5.76608398 -7.34326172 5.26123047 C-9.76447311 4.06366906 -9.76447311 4.06366906 -11.921875 4.19140625 Z M-57.921875 18.19140625 C-57.921875 26.44140625 -57.921875 34.69140625 -57.921875 43.19140625 C-44.061875 43.19140625 -30.201875 43.19140625 -15.921875 43.19140625 C-15.921875 42.20140625 -15.921875 41.21140625 -15.921875 40.19140625 C-16.47649414 40.18206055 -17.03111328 40.17271484 -17.60253906 40.16308594 C-20.12653981 40.10924903 -22.64871314 40.02563371 -25.171875 39.94140625 C-26.04457031 39.92722656 -26.91726562 39.91304687 -27.81640625 39.8984375 C-34.2937312 39.65121136 -34.2937312 39.65121136 -37.47265625 37.32421875 C-39.39557832 34.49425797 -39.85336508 32.61690225 -39.921875 29.19140625 C-37.69834559 23.57964154 -37.69834559 23.57964154 -34.921875 22.19140625 C-33.4753508 22.04073411 -32.0230816 21.94279589 -30.5703125 21.875 C-29.71953125 21.83310547 -28.86875 21.79121094 -27.9921875 21.74804688 C-26.65800781 21.68907227 -26.65800781 21.68907227 -25.296875 21.62890625 C-24.3996875 21.58572266 -23.5025 21.54253906 -22.578125 21.49804688 C-20.35953217 21.39183764 -18.1408262 21.28979431 -15.921875 21.19140625 C-15.921875 20.20140625 -15.921875 19.21140625 -15.921875 18.19140625 C-29.781875 18.19140625 -43.641875 18.19140625 -57.921875 18.19140625 Z " fill="#F5FDC6" transform="translate(136.921875,31.80859375)"/>
</svg>
