<?xml version="1.0" standalone="no"?>
<!DOCTYPE svg PUBLIC "-//W3C//DTD SVG 20010904//EN"
 "http://www.w3.org/TR/2001/REC-SVG-20010904/DTD/svg10.dtd">
<svg version="1.0" xmlns="http://www.w3.org/2000/svg"
 width="300.000000pt" height="300.000000pt" viewBox="0 0 300.000000 300.000000"
 preserveAspectRatio="xMidYMid meet">
<metadata>
Created by potrace 1.10, written by Peter Selinger 2001-2011
</metadata>
<g transform="translate(0.000000,300.000000) scale(0.100000,-0.100000)"
fill="#123524" stroke="none">
<path d="M1280 2544 c-224 -153 -494 -336 -815 -553 -132 -90 -246 -170 -252
-179 -7 -9 -13 -33 -13 -53 0 -29 7 -43 31 -63 57 -48 -17 -91 759 439 272
186 502 339 510 339 8 0 87 -50 175 -110 88 -61 351 -240 584 -399 460 -313
463 -315 516 -265 28 26 34 83 12 111 -11 14 -135 100 -682 471 -110 75 -283
193 -385 262 -150 102 -192 126 -220 126 -28 0 -70 -24 -220 -126z m270 65
c84 -52 1158 -784 1183 -808 47 -43 18 -97 -40 -75 -24 9 -463 305 -998 672
-187 128 -183 127 -237 98 -24 -13 -242 -158 -483 -323 -649 -442 -666 -453
-689 -453 -50 0 -60 43 -18 82 24 22 1049 722 1170 799 55 35 66 35 112 8z"/>
<path d="M2035 2635 c-37 -36 -37 -86 0 -124 22 -23 28 -24 154 -22 l131 2 0
-91 c0 -83 2 -93 25 -115 16 -17 35 -25 60 -25 25 0 44 8 60 25 24 23 25 28
25 173 l0 148 -28 27 -28 27 -188 0 c-185 0 -187 0 -211 -25z m395 -35 c18
-18 20 -33 20 -143 0 -110 -2 -126 -19 -141 -25 -22 -59 -13 -65 17 -3 12 -7
50 -9 85 -5 97 -19 106 -165 110 -119 4 -142 11 -142 43 0 40 35 49 202 49
145 0 160 -2 178 -20z"/>
<path d="M539 1671 l-29 -29 0 -632 0 -631 25 -24 24 -25 941 0 941 0 24 25
25 24 0 635 0 634 -31 26 c-39 33 -82 34 -114 1 l-25 -24 0 -576 0 -575 -820
0 -820 0 0 575 0 576 -25 24 c-34 35 -78 33 -116 -4z m89 -33 c9 -9 12 -147
12 -560 0 -580 1 -595 45 -612 28 -10 1614 -7 1635 4 38 20 40 56 40 614 0
408 3 545 12 554 18 18 56 14 68 -7 6 -13 10 -226 10 -622 0 -547 -2 -604 -17
-621 -15 -17 -57 -18 -934 -18 -821 0 -919 2 -933 16 -14 14 -16 84 -16 628 0
463 3 615 12 624 7 7 21 12 33 12 12 0 26 -5 33 -12z"/>
</g>
</svg>
