<?xml version="1.0" encoding="UTF-8"?>
<svg version="1.1" xmlns="http://www.w3.org/2000/svg" width="500" height="500">
<path d="M0 0 C1.67449219 0.17208984 1.67449219 0.17208984 3.3828125 0.34765625 C22.01350234 2.65965752 38.08675197 11.72360468 52 24 C52.598125 24.515625 53.19625 25.03125 53.8125 25.5625 C71.46320228 41.90574285 81.10867383 66.22095858 82.125 89.9140625 C82.4994878 109.15337311 78.30304459 126.07441148 67.42578125 141.91796875 C66.30074712 143.56082681 65.23306825 145.24295835 64.1875 146.9375 C62.25074454 149.64895765 60.24622479 151.98560652 58 154.4375 C42.47433596 171.52597841 31.70238229 186.42805886 31.7265625 210.3359375 C31.7062993 212.47266173 31.68544908 214.60938047 31.6640625 216.74609375 C31.64136391 220.07735919 31.62494183 223.4084065 31.61914062 226.73974609 C31.60964938 229.98053138 31.57594912 233.22036474 31.5390625 236.4609375 C31.54410797 237.45886322 31.54915344 238.45678894 31.55435181 239.48495483 C31.45611179 246.36168136 31.45611179 246.36168136 29.12744141 249.62060547 C26.55872463 251.28611497 24.79424817 251.58977641 21.75 251.75 C20.85796875 251.80671875 19.9659375 251.8634375 19.046875 251.921875 C18.03367187 251.96054687 18.03367187 251.96054687 17 252 C16.85304688 252.7734375 16.70609375 253.546875 16.5546875 254.34375 C14.48439838 263.95750636 11.47788794 269.82130634 3.3125 275.4375 C-3.98507525 280.06307878 -12.5846827 280.11265449 -21 279 C-27.51808542 276.67727906 -32.07338333 272.59245405 -36 267 C-36.86625 265.9171875 -36.86625 265.9171875 -37.75 264.8125 C-39.71406109 260.39336256 -39.75680127 255.78849912 -40 251 C-40.66386719 251.05800781 -41.32773438 251.11601562 -42.01171875 251.17578125 C-42.89472656 251.22089844 -43.77773437 251.26601563 -44.6875 251.3125 C-45.99267578 251.39951172 -45.99267578 251.39951172 -47.32421875 251.48828125 C-51.33570852 250.75625757 -52.54634469 249.2421407 -55 246 C-55.71959624 242.46644655 -55.65004361 238.99397941 -55.6015625 235.3984375 C-55.60956879 234.36619049 -55.61757507 233.33394348 -55.62582397 232.27041626 C-55.64888212 228.97154506 -55.63944986 225.67390407 -55.625 222.375 C-55.62113475 219.0977478 -55.62477191 215.82104575 -55.64559937 212.54385376 C-55.65754919 210.50805862 -55.65525359 208.47210901 -55.63589478 206.43637085 C-55.71161924 186.8817279 -66.07151351 171.70790619 -79.31884766 158.14697266 C-82.06897166 155.27646289 -83.79767174 152.80046288 -85 149 C-85.66 149 -86.32 149 -87 149 C-88.4389012 147.02760789 -89.73129415 145.07908046 -91 143 C-91.36351562 142.4107373 -91.72703125 141.82147461 -92.1015625 141.21435547 C-104.9054245 120.08910239 -108.80623843 95.78284587 -103.8215332 71.37817383 C-98.16666469 48.43052754 -82.50174631 25.69413636 -62.23828125 13.3125 C-56.65555936 10.1980108 -50.92603862 7.39980076 -45 5 C-43.79730469 4.50371094 -42.59460938 4.00742188 -41.35546875 3.49609375 C-36.65799258 1.75408803 -31.94926952 0.93907513 -27 0.25 C-26.08154297 0.12149658 -25.16308594 -0.00700684 -24.21679688 -0.1394043 C-15.9358165 -1.19035221 -8.28315353 -1.00644769 0 0 Z M-70.32421875 38.1484375 C-72.22367873 39.83092423 -72.22367873 39.83092423 -72 42 C-72.66 42 -73.32 42 -74 42 C-88.12339023 58.19242192 -92.82453339 80.1752465 -92 101 C-90.10865655 120.94289994 -79.94696205 136.34914665 -66.625 150.75 C-56.03731417 162.41656919 -47.20179016 175.4178708 -43.54296875 190.91796875 C-43.19409735 192.97449778 -43.19409735 192.97449778 -42 194 C-40.1281906 194.09386381 -38.2528194 194.11743804 -36.37866211 194.11352539 C-35.17749252 194.11344986 -33.97632294 194.11337433 -32.73875427 194.11329651 C-30.77785606 194.10555458 -30.77785606 194.10555458 -28.77734375 194.09765625 C-27.43355868 194.09579198 -26.08977293 194.09436812 -24.74598694 194.09336853 C-21.20317723 194.08954402 -17.6604083 194.07971432 -14.11761475 194.06866455 C-10.50484773 194.05844899 -6.89207416 194.0538706 -3.27929688 194.04882812 C3.8138188 194.03809198 10.90690674 194.02101636 18 194 C18.9932304 191.02159973 19.98575998 188.043006 20.97265625 185.0625 C26.02339353 170.86974721 34.78363007 158.08878655 45.515625 147.5234375 C59.80690304 133.00745383 67.59677502 114.57687118 68.4375 94.3125 C67.89906099 78.48239304 63.8184296 64.65686728 56 51 C55.32227405 49.67225388 54.64920842 48.34192051 54 47 C53.34 47 52.68 47 52 47 C51.773125 46.278125 51.54625 45.55625 51.3125 44.8125 C49.6940426 41.34437701 47.83440705 39.59318091 45 37 C43.96939453 36.05060547 43.96939453 36.05060547 42.91796875 35.08203125 C8.85174883 4.14967142 -37.50910068 7.81513508 -70.32421875 38.1484375 Z M-41 208 C-41 210.64 -41 213.28 -41 216 C-21.86 216 -2.72 216 17 216 C17 213.36 17 210.72 17 208 C-2.14 208 -21.28 208 -41 208 Z M-41 230 C-41 232.31 -41 234.62 -41 237 C-21.86 237 -2.72 237 17 237 C17 234.69 17 232.38 17 230 C-2.14 230 -21.28 230 -41 230 Z M-26 251 C-25.88056597 259.46895974 -25.88056597 259.46895974 -22.5625 263 C-18.47638519 265.85238449 -13.86888832 266.14704696 -9 266 C-6.18827127 265.45981189 -6.18827127 265.45981189 -4 264 C-3.113125 263.484375 -2.22625 262.96875 -1.3125 262.4375 C1.93609644 259.43191094 1.93609644 259.43191094 3 251 C-6.57 251 -16.14 251 -26 251 Z " fill="#123524" transform="translate(262,132)"/>
<path d="M0 0 C14.47326451 6.22959282 25.37620395 16.43844198 32.875 30.25 C33.3596875 31.13945312 33.844375 32.02890625 34.34375 32.9453125 C37.34527842 39.21013053 38.57003327 45.34690965 39.375 52.1875 C39.47659424 53.00476563 39.57818848 53.82203125 39.68286133 54.6640625 C40.03790376 58.42013985 40.09737223 60.71796924 38.62109375 64.25 C36.875 66.25 36.875 66.25 33.4375 67.3125 C29.875 67.25 29.875 67.25 27.73828125 65.80859375 C25.06791917 62.14174435 24.96365095 58.68260696 24.5 54.25 C23.3589582 45.39277913 21.43545826 36.81045826 14.875 30.25 C14.875 29.26 14.875 28.27 14.875 27.25 C13.555 26.59 12.235 25.93 10.875 25.25 C10.875 24.59 10.875 23.93 10.875 23.25 C10.30007813 22.97929687 9.72515625 22.70859375 9.1328125 22.4296875 C6.84695764 21.23534811 4.84934706 19.87010695 2.75 18.375 C-5.39885674 12.96003847 -12.89452968 10.73497682 -22.59204102 10.19628906 C-26.2810142 9.89817197 -27.89135213 9.47369756 -30.6015625 6.87890625 C-32.125 4.25 -32.125 4.25 -32.125 1.125 C-31.125 -1.75 -31.125 -1.75 -29.625 -3.625 C-20.7516151 -7.61802321 -8.59554346 -3.17037533 0 0 Z " fill="#123524" transform="translate(275.125,164.75)"/>
<path d="M0 0 C1.4765625 2.125 1.4765625 2.125 3 5 C3.62519531 6.10214844 4.25039062 7.20429687 4.89453125 8.33984375 C5.53616716 9.53782654 6.17545721 10.73706846 6.8125 11.9375 C7.14958984 12.53240234 7.48667969 13.12730469 7.83398438 13.74023438 C9.54464114 17.00798165 10.06955652 18.65865036 9.32421875 22.31640625 C8 25 8 25 6 27 C2.75 27.625 2.75 27.625 -1 27 C-6.51022072 22.22181343 -11.47668059 13.05273912 -12.2265625 5.8125 C-11.98581813 3.06113577 -11.41573092 1.38375161 -9.375 -0.5 C-5.90111304 -1.23134462 -3.42038726 -0.93283289 0 0 Z " fill="#123524" transform="translate(190,111)"/>
<path d="M0 0 C0 0.66 0 1.32 0 2 C0.66 2 1.32 2 2 2 C2.68793721 7.07353694 2.68793721 7.07353694 2 10 C-0.29544504 12.35816212 -3.05871772 13.58400304 -6 15 C-6.82886719 15.46664063 -7.65773437 15.93328125 -8.51171875 16.4140625 C-13.38976967 19.08839976 -17.30307289 21.04637437 -23 20 C-25 18.4375 -25 18.4375 -26 16 C-26.25 12.625 -26.25 12.625 -25 9 C-20.84510717 5.26229928 -16.16290679 3.01648885 -11 1 C-10.38125 0.608125 -9.7625 0.21625 -9.125 -0.1875 C-5.93824968 -1.40596336 -3.28338113 -0.63141945 0 0 Z " fill="#123524" transform="translate(154,269)"/>
<path d="M0 0 C2.22990189 2.41572705 2.00068507 4.053249 2.04296875 7.33984375 C0.91714584 11.29076534 0.6756566 11.64171447 -2.60546875 13.65234375 C-4.1193786 14.44042455 -5.64760947 15.20147585 -7.1875 15.9375 C-7.94353516 16.33517578 -8.69957031 16.73285156 -9.47851562 17.14257812 C-13.780329 19.3102742 -17.07908411 20.59938976 -22 20 C-24.375 19 -24.375 19 -26 17 C-26.33686831 14.24528656 -26.18319242 11.7936844 -26 9 C-23.32352649 7.52400358 -20.64284776 6.05722937 -17.953125 4.60546875 C-16.20044014 3.65262024 -14.45670824 2.68245533 -12.734375 1.67578125 C-8.19565271 -0.87054917 -5.20207276 -1.66466328 0 0 Z " fill="#123524" transform="translate(370,161)"/>
<path d="M0 0 C2.4375 1.5625 2.4375 1.5625 4 4 C3.71458689 9.77961538 1.83123852 13.88757573 -0.9375 18.8125 C-1.29779297 19.47958984 -1.65808594 20.14667969 -2.02929688 20.83398438 C-3.49926163 23.51673774 -4.82643614 25.82643614 -7 28 C-10.59411792 28.46879799 -12.35164037 28.44361448 -15.375 26.375 C-17.52459017 23.23329129 -17.38206433 21.78551094 -17 18 C-15.9581532 15.12522134 -14.60291965 12.45689713 -13.1875 9.75 C-12.83107422 9.03070313 -12.47464844 8.31140625 -12.10742188 7.5703125 C-9.20246834 1.87766961 -6.92573724 -0.84804946 0 0 Z " fill="#123524" transform="translate(318,110)"/>
<path d="M0 0 C3.83859072 1.73701591 7.41469568 3.79279703 11 6 C12.051875 6.639375 13.10375 7.27875 14.1875 7.9375 C16 10 16 10 16.5 13.5625 C16 17 16 17 14.9375 18.9375 C11.84898473 20.63120192 9.49462516 20.28456729 6 20 C2.87836316 18.93153933 0.03391579 17.48474228 -2.875 15.9375 C-3.64585937 15.56689453 -4.41671875 15.19628906 -5.2109375 14.81445312 C-7.37080949 13.68318214 -9.18818632 12.63308873 -11 11 C-12.05816037 7.34134218 -12.42016886 5.2281859 -11.1875 1.625 C-8.34671779 -2.26238618 -4.13248596 -1.09310919 0 0 Z " fill="#123524" transform="translate(140,161)"/>
<path d="M0 0 C3.03515625 1.42578125 3.03515625 1.42578125 6.0625 3.3125 C7.56490234 4.23482422 7.56490234 4.23482422 9.09765625 5.17578125 C10.05542969 5.77777344 11.01320313 6.37976563 12 7 C12.92683594 7.50015625 13.85367187 8.0003125 14.80859375 8.515625 C17 10 17 10 18 13.4375 C18 17 18 17 17 19.4375 C13.93069287 21.83539619 11.83997418 21.36643889 8 21 C4.88357126 19.79006319 2.02825013 18.21184641 -0.875 16.5625 C-1.64585937 16.14162109 -2.41671875 15.72074219 -3.2109375 15.28710938 C-8.77300942 12.22699058 -8.77300942 12.22699058 -10 11 C-10.36395977 7.14202645 -10.56007535 4.84011302 -8.375 1.5625 C-5.28024002 -0.47352631 -3.66939187 -0.34608533 0 0 Z " fill="#123524" transform="translate(354,268)"/>
<path d="M0 0 C0.95455078 -0.01998047 1.90910156 -0.03996094 2.89257812 -0.06054688 C9.83552768 -0.05568827 9.83552768 -0.05568827 13.22265625 2.2421875 C14.5625 4.4375 14.5625 4.4375 14.5625 8 C13.5625 11.4375 13.5625 11.4375 12.09375 13.125 C8.17836739 15.15519839 4.40741054 14.91104375 0.0625 14.875 C-1.21947266 14.9049707 -1.21947266 14.9049707 -2.52734375 14.93554688 C-8.73612572 14.93070383 -8.73612572 14.93070383 -12.00390625 12.6328125 C-14.08755503 9.44204789 -13.91116891 7.15918429 -13.4375 3.4375 C-10.10911504 -1.126897 -5.14771861 -0.03807996 0 0 Z " fill="#123524" transform="translate(127.4375,217.5625)"/>
<path d="M0 0 C0.92425781 -0.00386719 1.84851563 -0.00773438 2.80078125 -0.01171875 C4.24517578 0.00568359 4.24517578 0.00568359 5.71875 0.0234375 C6.68167969 0.01183594 7.64460938 0.00023437 8.63671875 -0.01171875 C9.56097656 -0.00785156 10.48523438 -0.00398437 11.4375 0 C12.28248047 0.00338379 13.12746094 0.00676758 13.99804688 0.01025391 C16.72038846 0.48612496 17.60564388 1.17945487 19.21875 3.3984375 C19.69224662 7.11876811 19.87398925 9.40133429 17.78125 12.5859375 C13.92291504 15.31500369 10.39651937 15.02042164 5.78125 14.9609375 C4.93498047 14.98478516 4.08871094 15.00863281 3.21679688 15.03320312 C-1.25298897 15.02270245 -3.2136393 14.82718758 -6.87890625 12.05859375 C-8.78125 9.3984375 -8.78125 9.3984375 -8.78125 6.2734375 C-7.07409748 1.36537399 -5.15940547 0.02066123 0 0 Z " fill="#123524" transform="translate(366.78125,217.6015625)"/>
<path d="M0 0 C0.680625 -0.0103125 1.36125 -0.020625 2.0625 -0.03125 C4 0.5 4 0.5 5.7265625 1.9375 C7.68682698 5.88208128 7.4339491 9.65741622 7.375 14 C7.38660156 14.85464844 7.39820313 15.70929688 7.41015625 16.58984375 C7.39328254 20.19519325 7.34604532 22.80366341 5.7265625 26.0625 C3.66385013 27.77987139 2.66352448 28.04035643 0 28 C-0.680625 28.0103125 -1.36125 28.020625 -2.0625 28.03125 C-4 27.5 -4 27.5 -5.7265625 26.0625 C-7.68682698 22.11791872 -7.4339491 18.34258378 -7.375 14 C-7.38660156 13.14535156 -7.39820313 12.29070312 -7.41015625 11.41015625 C-7.39328254 7.80480675 -7.34604532 5.19633659 -5.7265625 1.9375 C-3.66385013 0.22012861 -2.66352448 -0.04035643 0 0 Z " fill="#123524" transform="translate(250,88.5)"/>
<path d="M0 0 C3.27760089 7.78430211 4.05656762 15.61996858 3 24 C0 26 0 26 -3.5625 25.8125 C-7 25 -7 25 -9 22 C-9.31884766 19.82348633 -9.31884766 19.82348633 -9.4140625 17.33203125 C-9.45273437 16.43935547 -9.49140625 15.54667969 -9.53125 14.62695312 C-9.5621875 13.69818359 -9.593125 12.76941406 -9.625 11.8125 C-9.66367187 10.87212891 -9.70234375 9.93175781 -9.7421875 8.96289062 C-9.83643187 6.6421229 -9.92204025 4.32136252 -10 2 C-9.01 2.33 -8.02 2.66 -7 3 C-7 2.34 -7 1.68 -7 1 C-4.50935112 0.31292445 -2.62113708 0 0 0 Z " fill="#123524" transform="translate(310,206)"/>
<path d="M0 0 C4.77904175 -0.31766156 7.5474776 0.43934908 11.6875 2.8125 C12.61949219 3.33457031 13.55148437 3.85664063 14.51171875 4.39453125 C19.16349151 7.39591054 21.60675698 11.04256803 24 16 C23.01 16 22.02 16 21 16 C20.67 16.66 20.34 17.32 20 18 C20 17.34 20 16.68 20 16 C19.01 16.33 18.02 16.66 17 17 C16.67 18.65 16.34 20.3 16 22 C15.2265625 21.3503125 15.2265625 21.3503125 14.4375 20.6875 C11.94338701 18.81063931 11.94338701 18.81063931 8.4375 17.6875 C5 16 5 16 3.0625 13.125 C2.04438433 10.13054215 1.91357335 8.11135932 2 5 C1.34 4.34 0.68 3.68 0 3 C0 2.01 0 1.02 0 0 Z " fill="#123524" transform="translate(270,165)"/>
<path d="M0 0 C2 2.4375 2 2.4375 3 5 C2.67 5.66 2.34 6.32 2 7 C1.01 7 0.02 7 -1 7 C-1.33 7.99 -1.66 8.98 -2 10 C-2.66 10 -3.32 10 -4 10 C-4.33 10.66 -4.66 11.32 -5 12 C-5 11.34 -5 10.68 -5 10 C-5.99 10 -6.98 10 -8 10 C-8 10.66 -8 11.32 -8 12 C-7.34 12.33 -6.68 12.66 -6 13 C-6.66 13.66 -7.32 14.32 -8 15 C-12 9.06060606 -12 9.06060606 -12 4.1875 C-11 1 -11 1 -9.375 -0.5 C-5.90111304 -1.23134462 -3.42038726 -0.93283289 0 0 Z " fill="#123524" transform="translate(190,111)"/>
<path d="M0 0 C0.04940929 5.49925421 0.08572395 10.99837942 0.10986328 16.49780273 C0.11992567 18.36891938 0.13357691 20.24002028 0.15087891 22.11108398 C0.17511684 24.79935591 0.18648063 27.48742006 0.1953125 30.17578125 C0.20563507 31.01337479 0.21595764 31.85096832 0.22659302 32.71394348 C0.22774341 38.65838488 0.22774341 38.65838488 -2 42 C-2.02505615 40.86457764 -2.0501123 39.72915527 -2.07592773 38.55932617 C-2.17005576 34.34924919 -2.27026337 30.13933512 -2.37231445 25.92944336 C-2.41564287 24.10689096 -2.45731947 22.28429852 -2.49731445 20.46166992 C-2.55506762 17.84281339 -2.61874756 15.22415805 -2.68359375 12.60546875 C-2.70030624 11.78974899 -2.71701874 10.97402924 -2.73423767 10.1335907 C-2.82013245 6.85820456 -2.95752134 4.12743599 -4 1 C-1 0 -1 0 0 0 Z " fill="#123524" transform="translate(292,329)"/>
<path d="M0 0 C2.4375 1.1875 2.4375 1.1875 5 3 C5.875 5.5625 5.875 5.5625 6 8 C5 10 5 10 1.9375 11.125 C0.4834375 11.558125 0.4834375 11.558125 -1 12 C-1 12.66 -1 13.32 -1 14 C-1.66 14 -2.32 14 -3 14 C-4.6875 11.6875 -4.6875 11.6875 -6 9 C-5.67 8.01 -5.34 7.02 -5 6 C-4.34 6 -3.68 6 -3 6 C-2.67 5.34 -2.34 4.68 -2 4 C-1.34 4 -0.68 4 0 4 C0 2.68 0 1.36 0 0 Z M-3 8 C-3 8.66 -3 9.32 -3 10 C-2.34 9.67 -1.68 9.34 -1 9 C-1.66 8.67 -2.32 8.34 -3 8 Z " fill="#123524" transform="translate(174,259)"/>
<path d="M0 0 C2.4375 1.5625 2.4375 1.5625 4 4 C3.75 7.75 3.75 7.75 3 11 C2.34 9.68 1.68 8.36 1 7 C0.01 7 -0.98 7 -2 7 C-2.66 5.68 -3.32 4.36 -4 3 C-4.99 3.33 -5.98 3.66 -7 4 C-7 5.32 -7 6.64 -7 8 C-8.65 8.66 -10.3 9.32 -12 10 C-10.55395683 3.61330935 -10.55395683 3.61330935 -8.25 1.0625 C-5.23433139 -0.36156573 -3.29833831 -0.48100767 0 0 Z " fill="#123524" transform="translate(318,110)"/>
<path d="M0 0 C1.32 0.33 2.64 0.66 4 1 C3.65171318 6.39844578 3.65171318 6.39844578 3 9 C1.0625 10.5625 1.0625 10.5625 -1 11 C-1.66 10.67 -2.32 10.34 -3 10 C-3.33 10.66 -3.66 11.32 -4 12 C-7 6.25 -7 6.25 -7 4 C-5.02 4 -3.04 4 -1 4 C-0.67 2.68 -0.34 1.36 0 0 Z " fill="#123524" transform="translate(189,117)"/>
<path d="M0 0 C0.33 0.99 0.66 1.98 1 3 C-0.9375 6.1875 -0.9375 6.1875 -3 9 C-2.01 10.32 -1.02 11.64 0 13 C-1.32 13 -2.64 13 -4 13 C-6.33634657 13.31151288 -8.67038557 13.64159778 -11 14 C-8.5092742 10.17495681 -6.02696221 6.43055717 -3 3 C-2.34 3 -1.68 3 -1 3 C-0.67 2.01 -0.34 1.02 0 0 Z " fill="#123524" transform="translate(308,278)"/>
<path d="M0 0 C0.66 0.33 1.32 0.66 2 1 C1.5875 1.886875 1.175 2.77375 0.75 3.6875 C0.5025 4.780625 0.255 5.87375 0 7 C1.74409751 9.8900216 1.74409751 9.8900216 4 12 C4.33 11.01 4.66 10.02 5 9 C7.97 9.495 7.97 9.495 11 10 C8.43015709 12.46704919 7.04146306 12.99490804 3.4375 13.4375 C0 13 0 13 -2 11.4375 C-3.41970326 7.97697331 -2.86301515 5.58483216 -2 2 C-1.34 1.34 -0.68 0.68 0 0 Z " fill="#123524" transform="translate(131,276)"/>
<path d="M0 0 C0.99 0.33 1.98 0.66 3 1 C4.23076923 7.4 4.23076923 7.4 3.0625 10.4375 C2.711875 10.953125 2.36125 11.46875 2 12 C1.34 12 0.68 12 0 12 C-0.33 10.02 -0.66 8.04 -1 6 C-1.66 6 -2.32 6 -3 6 C-2.42655063 3.13275314 -2.1385485 2.1385485 0 0 Z " fill="#123524" transform="translate(368,161)"/>
<path d="M0 0 C0.99 0 1.98 0 3 0 C1.25 3.875 1.25 3.875 -1 5 C-4.16119798 5.2367715 -7.33089738 5.18518001 -10.5 5.1875 C-11.38042969 5.19974609 -12.26085937 5.21199219 -13.16796875 5.22460938 C-14.00972656 5.22654297 -14.85148437 5.22847656 -15.71875 5.23046875 C-16.49154297 5.23457764 -17.26433594 5.23868652 -18.06054688 5.24291992 C-20 5 -20 5 -22 3 C-14.74 3 -7.48 3 0 3 C0 2.01 0 1.02 0 0 Z " fill="#123524" transform="translate(138,227)"/>
<path d="M0 0 C1.65 0.33 3.3 0.66 5 1 C4.34 3.64 3.68 6.28 3 9 C-1.87685861 7.64531705 -3.48592381 5.28324091 -6 1 C-3.525 1.99 -3.525 1.99 -1 3 C-0.67 2.01 -0.34 1.02 0 0 Z " fill="#123524" transform="translate(305,159)"/>
<path d="M0 0 C0.33 0.66 0.66 1.32 1 2 C5.29 2 9.58 2 14 2 C13.67 2.66 13.34 3.32 13 4 C10.71484375 4.4140625 10.71484375 4.4140625 7.9375 4.625 C7.01839844 4.69976562 6.09929687 4.77453125 5.15234375 4.8515625 C4.44207031 4.90054687 3.73179687 4.94953125 3 5 C2.67 6.65 2.34 8.3 2 10 C1.01 9.67 0.02 9.34 -1 9 C-1.33 6.69 -1.66 4.38 -2 2 C-1.34 2 -0.68 2 0 2 C0 1.34 0 0.68 0 0 Z " fill="#123524" transform="translate(276,379)"/>
<path d="M0 0 C3.78520613 0.54074373 5.59177555 2.07572746 8 5 C8 5.99 8 6.98 8 8 C8.99 8.33 9.98 8.66 11 9 C11.6875 11.0625 11.6875 11.0625 12 13 C12.66 12.67 13.32 12.34 14 12 C14.92091738 14.57856865 15.18506902 15.5943287 14.0234375 18.140625 C13.51683594 19.06101563 13.51683594 19.06101563 13 20 C11.99491199 18.21118264 10.99607264 16.41885304 10 14.625 C9.1646875 13.12839844 9.1646875 13.12839844 8.3125 11.6015625 C7 9 7 9 7 7 C6.34 7 5.68 7 5 7 C4.731875 6.195625 4.46375 5.39125 4.1875 4.5625 C3.795625 3.716875 3.40375 2.87125 3 2 C2.01 1.67 1.02 1.34 0 1 C0 0.67 0 0.34 0 0 Z " fill="#123524" transform="translate(309,172)"/>
<path d="M0 0 C0.33 0.99 0.66 1.98 1 3 C1.99 3 2.98 3 4 3 C3.67 4.32 3.34 5.64 3 7 C0.625 7.625 0.625 7.625 -2 8 C-4 6 -4 6 -4.125 3.375 C-4.08375 2.59125 -4.0425 1.8075 -4 1 C-3.01 1 -2.02 1 -1 1 C-0.67 0.67 -0.34 0.34 0 0 Z " fill="#123524" transform="translate(191,130)"/>
<path d="M0 0 C0.33 0.66 0.66 1.32 1 2 C1.66 2 2.32 2 3 2 C3 2.66 3 3.32 3 4 C0.65147472 5.17426264 -0.73774065 5.11508173 -3.3515625 5.09765625 C-4.20234375 5.09443359 -5.053125 5.09121094 -5.9296875 5.08789062 C-6.81914062 5.07951172 -7.70859375 5.07113281 -8.625 5.0625 C-9.5221875 5.05798828 -10.419375 5.05347656 -11.34375 5.04882812 C-13.56256648 5.03702591 -15.78125018 5.02056155 -18 5 C-18 4.67 -18 4.34 -18 4 C-16.78441406 3.87882813 -15.56882812 3.75765625 -14.31640625 3.6328125 C-12.73171883 3.46402922 -11.1470861 3.29473184 -9.5625 3.125 C-8.76005859 3.04636719 -7.95761719 2.96773437 -7.13085938 2.88671875 C-5.07829006 2.66154237 -3.03706991 2.33777413 -1 2 C-0.67 1.34 -0.34 0.68 0 0 Z " fill="#123524" transform="translate(381,227)"/>
<path d="M0 0 C0.66 0.66 1.32 1.32 2 2 C1.34 2 0.68 2 0 2 C0 1.34 0 0.68 0 0 Z M-3 1 C-1.02 1.99 0.96 2.98 3 4 C2.01 5.32 1.02 6.64 0 8 C-1.65 7.67 -3.3 7.34 -5 7 C-5 4 -5 4 -3 1 Z " fill="#123524" transform="translate(310,282)"/>
<path d="M0 0 C3.98175544 2.10148204 6.35039045 4.36905358 9 8 C7.824375 7.9690625 7.824375 7.9690625 6.625 7.9375 C4.01885039 7.81315937 4.01885039 7.81315937 2 9 C-0.125 8.0625 -0.125 8.0625 -2 7 C-2 6.34 -2 5.68 -2 5 C-0.68 4.67 0.64 4.34 2 4 C1.34 2.68 0.68 1.36 0 0 Z " fill="#123524" transform="translate(308,152)"/>
<path d="M0 0 C0.33 0 0.66 0 1 0 C1 5.61 1 11.22 1 17 C1.66 17 2.32 17 3 17 C3.33 18.32 3.66 19.64 4 21 C6.31 21.33 8.62 21.66 11 22 C11 22.33 11 22.66 11 23 C3.60357023 23.48501179 3.60357023 23.48501179 1.25 21.59375 C-0.69260035 17.56285428 -0.31445889 13.65775206 -0.1875 9.25 C-0.17396484 8.36183594 -0.16042969 7.47367187 -0.14648438 6.55859375 C-0.11121309 4.37177422 -0.06192752 2.18620034 0 0 Z " fill="#123524" transform="translate(243,93)"/>
<path d="M0 0 C0.66 0.33 1.32 0.66 2 1 C1.1875 2.9375 1.1875 2.9375 0 5 C-0.99 5.33 -1.98 5.66 -3 6 C-4.70855022 9.00007271 -4.70855022 9.00007271 -6 12 C-7.32 11.67 -8.64 11.34 -10 11 C-8.89718873 9.72799029 -7.79269231 8.45744147 -6.6875 7.1875 C-6.07261719 6.47980469 -5.45773438 5.77210938 -4.82421875 5.04296875 C-3.26665665 3.29863261 -1.67341125 1.63221959 0 0 Z " fill="#123524" transform="translate(189,153)"/>
<path d="M0 0 C1.65 0 3.3 0 5 0 C5 0.99 5 1.98 5 3 C-0.17578125 6.22265625 -0.17578125 6.22265625 -2 7 C-2.99 6.67 -3.98 6.34 -5 6 C-4.34 5.01 -3.68 4.02 -3 3 C-2.34 3 -1.68 3 -1 3 C-0.67 2.01 -0.34 1.02 0 0 Z " fill="#123524" transform="translate(263,403)"/>
<path d="M0 0 C0.33 0 0.66 0 1 0 C0.25 6.75 0.25 6.75 -2 9 C-5.4375 9.3125 -5.4375 9.3125 -9 9 C-9.99 8.01 -10.98 7.02 -12 6 C-8.37 6 -4.74 6 -1 6 C-0.67 4.02 -0.34 2.04 0 0 Z " fill="#123524" transform="translate(371,280)"/>
<path d="M0 0 C0.66 0.99 1.32 1.98 2 3 C1.01 3.33 0.02 3.66 -1 4 C-1 5.65 -1 7.3 -1 9 C-1.66 9 -2.32 9 -3 9 C-3.12375 9.598125 -3.2475 10.19625 -3.375 10.8125 C-4 13 -4 13 -6 16 C-6.66 16 -7.32 16 -8 16 C-6.57250019 12.20950293 -4.83763458 8.72877544 -2.875 5.1875 C-2.33617187 4.21167969 -1.79734375 3.23585937 -1.2421875 2.23046875 C-0.83226562 1.49441406 -0.42234375 0.75835937 0 0 Z " fill="#123524" transform="translate(325,252)"/>
<path d="M0 0 C2.71994537 4.07991805 2.7673319 7.76066225 3.25 12.5625 C3.353125 13.43841797 3.45625 14.31433594 3.5625 15.21679688 C3.65015625 16.05404297 3.7378125 16.89128906 3.828125 17.75390625 C3.9096582 18.52033447 3.99119141 19.2867627 4.07519531 20.07641602 C4 22 4 22 2 24 C1.20165321 21.21202332 0.91347559 18.83065981 1 15.9375 C1.07138238 10.58382117 0.55685412 5.31994564 0 0 Z " fill="#123524" transform="translate(311,204)"/>
<path d="M0 0 C3 2 3 2 3.6875 4.625 C3.790625 5.40875 3.89375 6.1925 4 7 C1.69 6.67 -0.62 6.34 -3 6 C-3 4.35 -3 2.7 -3 1 C-2.01 0.67 -1.02 0.34 0 0 Z " fill="#123524" transform="translate(166,254)"/>
<path d="M0 0 C-0.99 3.63 -1.98 7.26 -3 11 C-3.33 11 -3.66 11 -4 11 C-4 9.35 -4 7.7 -4 6 C-4.99 6 -5.98 6 -7 6 C-7.33 6.66 -7.66 7.32 -8 8 C-8 5 -8 5 -5.6875 2.3125 C-3 0 -3 0 0 0 Z " fill="#123524" transform="translate(177,193)"/>
<path d="M0 0 C4.82142857 5.78571429 4.82142857 5.78571429 6 9 C5.67 9.99 5.34 10.98 5 12 C4.67 11.34 4.34 10.68 4 10 C1.98330173 8.86649466 1.98330173 8.86649466 0 8 C0 5.36 0 2.72 0 0 Z " fill="#123524" transform="translate(193,118)"/>
<path d="M0 0 C3.24299151 2.38957269 5.50902342 4.2047869 7 8 C6.01 7.67 5.02 7.34 4 7 C4 6.34 4 5.68 4 5 C1.83333333 5.83333333 1.83333333 5.83333333 1 8 C0.01 8 -0.98 8 -2 8 C-1.67 6.68 -1.34 5.36 -1 4 C-0.34 4 0.32 4 1 4 C0.67 2.68 0.34 1.36 0 0 Z " fill="#123524" transform="translate(196,284)"/>
<path d="M0 0 C2.37590142 3.70416126 2.20500286 6.92984573 2.125 11.25 C2.10695313 12.51328125 2.08890625 13.7765625 2.0703125 15.078125 C2.03550781 16.52445313 2.03550781 16.52445313 2 18 C1.01 17.67 0.02 17.34 -1 17 C-0.9278125 16.443125 -0.855625 15.88625 -0.78125 15.3125 C-0.15508783 10.1640555 0.09427945 5.18536962 0 0 Z " fill="#123524" transform="translate(340,202)"/>
<path d="M0 0 C0.66 0.99 1.32 1.98 2 3 C2.99 3.66 3.98 4.32 5 5 C3.35 5.66 1.7 6.32 0 7 C0 8.65 0 10.3 0 12 C-0.66 12 -1.32 12 -2 12 C-2.33 12.66 -2.66 13.32 -3 14 C-2.58846263 9.02906176 -2.20399168 4.55491614 0 0 Z " fill="#123524" transform="translate(162,192)"/>
<path d="M0 0 C1.12894876 0.93274109 2.25300876 1.87140122 3.375 2.8125 C4.00148438 3.33457031 4.62796875 3.85664063 5.2734375 4.39453125 C7 6 7 6 9 9 C6.69 9 4.38 9 2 9 C1.67 8.34 1.34 7.68 1 7 C1.99 7 2.98 7 4 7 C3.525625 6.5875 3.05125 6.175 2.5625 5.75 C0.82100687 3.7995277 0.53446781 2.51147981 0 0 Z " fill="#123524" transform="translate(290,174)"/>
<path d="M0 0 C0.639375 0.61875 1.27875 1.2375 1.9375 1.875 C5.81563076 4.56594788 9.40435579 5.23906545 14 6 C14 6.33 14 6.66 14 7 C4.64137931 7.31724138 4.64137931 7.31724138 1 5 C0.1875 2.375 0.1875 2.375 0 0 Z " fill="#123524" transform="translate(238,392)"/>
<path d="M0 0 C0.99 0 1.98 0 3 0 C3.33 1.32 3.66 2.64 4 4 C3.34 4 2.68 4 2 4 C1.34 5.32 0.68 6.64 0 8 C-0.66 7.01 -1.32 6.02 -2 5 C-1.125 2.3125 -1.125 2.3125 0 0 Z " fill="#123524" transform="translate(311,113)"/>
<path d="M0 0 C0.99 0.33 1.98 0.66 3 1 C2.67 2.98 2.34 4.96 2 7 C0.68 7.33 -0.64 7.66 -2 8 C-3 5 -3 5 -2 2 C-1.34 2 -0.68 2 0 2 C0 1.34 0 0.68 0 0 Z " fill="#123524" transform="translate(274,385)"/>
<path d="M0 0 C2.97 0.495 2.97 0.495 6 1 C3.38805647 3.50746579 2.05458522 3.99435325 -1.625 4.375 C-2.73875 4.25125 -3.8525 4.1275 -5 4 C-5.66 3.01 -6.32 2.02 -7 1 C-5.02 1.66 -3.04 2.32 -1 3 C-0.67 2.01 -0.34 1.02 0 0 Z " fill="#123524" transform="translate(136,285)"/>
<path d="M0 0 C0.66 0 1.32 0 2 0 C1.67 2.31 1.34 4.62 1 7 C-0.65 7.66 -2.3 8.32 -4 9 C-2.25 2.25 -2.25 2.25 0 0 Z " fill="#123524" transform="translate(310,111)"/>
<path d="M0 0 C0.66 0.66 1.32 1.32 2 2 C1.61121812 5.01305957 0.73543126 6.39685311 -1 9 C-1.66 8.67 -2.32 8.34 -3 8 C-1.125 1.125 -1.125 1.125 0 0 Z " fill="#123524" transform="translate(305,120)"/>
<path d="M0 0 C0.99 0 1.98 0 3 0 C2.690625 0.53625 2.38125 1.0725 2.0625 1.625 C0.82172561 4.3984957 0.4090325 7.00042837 0 10 C-0.66 9.34 -1.32 8.68 -2 8 C-1.42307692 1.42307692 -1.42307692 1.42307692 0 0 Z " fill="#123524" transform="translate(180,111)"/>
<path d="M0 0 C0.82638376 2.89234315 1 4.88742431 1 8 C0.01 8 -0.98 8 -2 8 C-2.33 8.99 -2.66 9.98 -3 11 C-3.33 10.34 -3.66 9.68 -4 9 C-3.22265625 6.8359375 -3.22265625 6.8359375 -2.0625 4.375 C-1.68222656 3.55773437 -1.30195313 2.74046875 -0.91015625 1.8984375 C-0.60980469 1.27195313 -0.30945313 0.64546875 0 0 Z " fill="#123524" transform="translate(167,181)"/>
<path d="M0 0 C2.64 0 5.28 0 8 0 C6.515 2.475 6.515 2.475 5 5 C4.34 4.67 3.68 4.34 3 4 C3 3.01 3 2.02 3 1 C1.68 1.33 0.36 1.66 -1 2 C-0.67 1.34 -0.34 0.68 0 0 Z " fill="#123524" transform="translate(246,89)"/>
<path d="M0 0 C2.475 0.495 2.475 0.495 5 1 C5.625 3.375 5.625 3.375 6 6 C5.34 6.66 4.68 7.32 4 8 C0 2.25 0 2.25 0 0 Z " fill="#123524" transform="translate(196,304)"/>
<path d="M0 0 C0.99 0.66 1.98 1.32 3 2 C2.67 3.65 2.34 5.3 2 7 C0.35 6.01 -1.3 5.02 -3 4 C-2.01 2.68 -1.02 1.36 0 0 Z " fill="#123524" transform="translate(178,178)"/>
<path d="M0 0 C-2.88087546 2.40072955 -5.56404834 4.47291037 -9 6 C-8.625 3.5625 -8.625 3.5625 -8 1 C-5.29120665 -0.35439668 -2.99066732 -0.06501451 0 0 Z " fill="#123524" transform="translate(211,155)"/>
<path d="M0 0 C0 0.66 0 1.32 0 2 C-4.08443115 3.53166168 -7.79455657 2.63081652 -12 2 C-8.09971775 -0.60018816 -4.52565431 -0.15085514 0 0 Z " fill="#123524" transform="translate(245,133)"/>
<path d="M0 0 C1.41377341 2.63904371 2.37240135 5.07120629 3 8 C0.525 7.01 0.525 7.01 -2 6 C-1.125 1.125 -1.125 1.125 0 0 Z " fill="#123524" transform="translate(285,316)"/>
<path d="M0 0 C0.33 0.66 0.66 1.32 1 2 C-0.125 5 -0.125 5 -2 8 C-4.6171875 9.1875 -4.6171875 9.1875 -7 10 C-6.02223933 8.51990357 -5.0427506 7.04094856 -4.0625 5.5625 C-3.51722656 4.73878906 -2.97195313 3.91507812 -2.41015625 3.06640625 C-1 1 -1 1 0 0 Z " fill="#123524" transform="translate(316,268)"/>
<path d="M0 0 C1.485 0.99 1.485 0.99 3 2 C3 2.66 3 3.32 3 4 C3.66 4 4.32 4 5 4 C5 4.66 5 5.32 5 6 C5.99 6 6.98 6 8 6 C7.34 7.32 6.68 8.64 6 10 C5.731875 9.195625 5.46375 8.39125 5.1875 7.5625 C4.795625 6.716875 4.40375 5.87125 4 5 C3.01 4.67 2.02 4.34 1 4 C0.3125 1.9375 0.3125 1.9375 0 0 Z " fill="#123524" transform="translate(309,168)"/>
<path d="M0 0 C0.99 0 1.98 0 3 0 C5 3 5 3 4.625 5.1875 C4.41875 5.785625 4.2125 6.38375 4 7 C0 2.25 0 2.25 0 0 Z " fill="#123524" transform="translate(226,397)"/>
<path d="M0 0 C0.66 0.33 1.32 0.66 2 1 C1.34 2.98 0.68 4.96 0 7 C-0.99 7 -1.98 7 -3 7 C-1.125 1.125 -1.125 1.125 0 0 Z " fill="#123524" transform="translate(288,304)"/>
<path d="M0 0 C2.125 0.375 2.125 0.375 4 1 C2.35 2.65 0.7 4.3 -1 6 C-1.625 4.125 -1.625 4.125 -2 2 C-1.34 1.34 -0.68 0.68 0 0 Z " fill="#123524" transform="translate(309,293)"/>
<path d="M0 0 C2 1 2 1 3.1875 3.375 C4 6 4 6 3 9 C0.9375 7.3125 0.9375 7.3125 -1 5 C-0.75 2.25 -0.75 2.25 0 0 Z " fill="#123524" transform="translate(333,183)"/>
<path d="M0 0 C0.33 0 0.66 0 1 0 C0.74438677 2.3431213 0.40729228 4.67843403 0 7 C-0.99 7.495 -0.99 7.495 -2 8 C-2.66 6.68 -3.32 5.36 -4 4 C-2.68 3.67 -1.36 3.34 0 3 C0 2.01 0 1.02 0 0 Z " fill="#123524" transform="translate(276,389)"/>
<path d="M0 0 C1.485 0.99 1.485 0.99 3 2 C3.6875 5.625 3.6875 5.625 4 9 C3.67 8.34 3.34 7.68 3 7 C2.34 7 1.68 7 1 7 C0.67 4.69 0.34 2.38 0 0 Z " fill="#123524" transform="translate(210,305)"/>
<path d="M0 0 C2 2 2 2 2 5 C-0.5 6.6875 -0.5 6.6875 -3 8 C-2.45276317 4.62537285 -1.9451 2.91765 0 0 Z " fill="#123524" transform="translate(317,269)"/>
<path d="M0 0 C2.0625 1.625 2.0625 1.625 4 4 C3.75 7.25 3.75 7.25 3 10 C-0.00617269 6.99382731 0.40414684 4.17618402 0 0 Z " fill="#123524" transform="translate(160,249)"/>
<path d="M0 0 C0.66 0.33 1.32 0.66 2 1 C1.34 3.64 0.68 6.28 0 9 C-1.5625 7.1875 -1.5625 7.1875 -3 5 C-2.67 4.01 -2.34 3.02 -2 2 C-1.34 2 -0.68 2 0 2 C0 1.34 0 0.68 0 0 Z " fill="#123524" transform="translate(326,190)"/>
<path d="M0 0 C-2 2 -2 2 -5.125 2.125 C-6.548125 2.063125 -6.548125 2.063125 -8 2 C-8.33 1.34 -8.66 0.68 -9 0 C-5.93109813 -1.53445094 -3.29905734 -0.54984289 0 0 Z " fill="#123524" transform="translate(356,179)"/>
<path d="M0 0 C2.35171131 0.59861742 4.6859378 1.26924352 7 2 C7.33 2.66 7.66 3.32 8 4 C6.02 4.33 4.04 4.66 2 5 C1.34 3.35 0.68 1.7 0 0 Z " fill="#123524" transform="translate(143,164)"/>
<path d="M0 0 C5.53846154 0.61538462 5.53846154 0.61538462 7.875 2.5625 C8.431875 3.2740625 8.431875 3.2740625 9 4 C6.36 3.67 3.72 3.34 1 3 C0.67 2.01 0.34 1.02 0 0 Z " fill="#123524" transform="translate(272,165)"/>
<path d="M0 0 C4.19469571 0.59924224 8.00999834 1.57499941 12 3 C8.02337646 4.32554118 5.90112089 3.34765994 2 2 C1.34 1.34 0.68 0.68 0 0 Z " fill="#123524" transform="translate(271,134)"/>
<path d="M0 0 C0.99 0.66 1.98 1.32 3 2 C3 2.66 3 3.32 3 4 C2.01 4 1.02 4 0 4 C-0.33 4.66 -0.66 5.32 -1 6 C-1 5.34 -1 4.68 -1 4 C-1.66 3.67 -2.32 3.34 -3 3 C-2.01 2.01 -1.02 1.02 0 0 Z " fill="#123524" transform="translate(291,177)"/>
<path d="M0 0 C0.99 0.33 1.98 0.66 3 1 C2.34 2.32 1.68 3.64 1 5 C-0.32 4.67 -1.64 4.34 -3 4 C-2.01 2.68 -1.02 1.36 0 0 Z " fill="#123524" transform="translate(182,160)"/>
<path d="M0 0 C-1.0625 1.5 -1.0625 1.5 -3 3 C-6.6875 3.1875 -6.6875 3.1875 -10 3 C-9 1 -9 1 -6.125 -0.1875 C-3 -1 -3 -1 0 0 Z " fill="#123524" transform="translate(220,138)"/>
<path d="M0 0 C1.9375 0.6875 1.9375 0.6875 4 2 C4.75 4.625 4.75 4.625 5 7 C3.0625 6.3125 3.0625 6.3125 1 5 C0.25 2.375 0.25 2.375 0 0 Z " fill="#123524" transform="translate(188,111)"/>
</svg>
