<?xml version="1.0" standalone="no"?>
<!DOCTYPE svg PUBLIC "-//W3C//DTD SVG 20010904//EN"
 "http://www.w3.org/TR/2001/REC-SVG-20010904/DTD/svg10.dtd">
<svg version="1.0" xmlns="http://www.w3.org/2000/svg"
 width="300.000000pt" height="300.000000pt" viewBox="0 0 300.000000 300.000000"
 preserveAspectRatio="xMidYMid meet">
<metadata>
Created by potrace 1.10, written by Peter Selinger 2001-2011
</metadata>
<g transform="translate(0.000000,300.000000) scale(0.100000,-0.100000)"
fill="#123524" stroke="none">
<path d="M1437 2985 c-343 -65 -633 -289 -784 -605 -59 -123 -76 -201 -82
-367 l-6 -151 -130 -168 c-176 -226 -195 -260 -195 -349 1 -124 53 -202 175
-256 l74 -34 57 -160 c101 -285 125 -330 210 -403 95 -81 189 -112 339 -112
l101 0 39 -162 c32 -133 45 -168 67 -191 l26 -27 595 0 594 0 27 25 c18 17 26
34 26 57 0 19 -40 174 -89 346 l-89 313 129 291 c227 508 238 543 239 758 1
614 -328 1040 -910 1176 -135 32 -304 39 -413 19z m345 -180 c371 -77 634
-297 744 -623 50 -146 75 -382 55 -512 -17 -104 -37 -159 -208 -545 -83 -187
-154 -350 -157 -361 -4 -14 24 -130 74 -302 44 -153 80 -282 80 -286 0 -3
-212 -5 -472 -4 l-471 3 -42 162 c-55 220 -48 213 -226 213 -158 0 -217 14
-279 67 -64 55 -77 81 -161 315 -44 123 -86 232 -93 243 -7 11 -50 35 -94 53
-123 50 -149 99 -96 178 15 21 81 108 147 193 67 85 129 171 139 190 14 28 18
60 18 156 1 66 7 147 14 180 72 323 333 598 641 674 101 25 283 27 387 6z"/>
<path d="M1520 2514 c-188 -40 -355 -194 -413 -379 -30 -98 -29 -244 2 -333
31 -87 65 -144 122 -207 221 -240 597 -241 817 0 93 101 136 203 148 348 4 48
9 87 11 87 2 0 16 -11 31 -25 56 -52 146 -15 146 60 0 34 -10 46 -120 156
-160 158 -148 157 -306 2 -114 -113 -118 -118 -118 -159 0 -79 79 -110 148
-57 l35 26 -5 -84 c-3 -65 -10 -97 -31 -140 -37 -76 -109 -145 -187 -183 -59
-28 -74 -31 -160 -31 -86 0 -101 3 -160 31 -79 38 -141 98 -183 179 -30 56
-32 67 -32 165 0 96 3 110 29 165 55 112 175 200 289 211 83 9 116 23 133 56
33 63 -13 129 -90 127 -22 0 -70 -7 -106 -15z"/>
</g>
</svg>
